<svg xmlns="http://www.w3.org/2000/svg" version="1.0" width="225.000000pt" height="225.000000pt" viewBox="0 0 225.000000 225.000000" preserveAspectRatio="xMidYMid meet">

<g transform="translate(0.000000,225.000000) scale(0.100000,-0.100000)" fill="#ff005f" stroke="none">
<path d="M980 2239 c-161 -19 -337 -85 -484 -183 -98 -65 -248 -217 -312 -316 -283 -438 -232 -1008 123 -1381 281 -296 668 -416 1063 -329 222 48 402 151 566 322 263 275 366 643 284 1018 -48 221 -150 401 -322 566 -250 239 -565 343 -918 303z m325 -80 c211 -35 403 -136 561 -293 222 -223 329 -517 303 -834 -15 -175 -78 -353 -179 -503 -56 -82 -187 -213 -269 -269 -435 -293 -1006 -232 -1361 146 -382 407 -381 1036 1 1439 94 98 182 164 294 219 206 102 420 133 650 95z" fill="#ff005f"/>
<path d="M1035 1466 c-632 -328 -700 -365 -700 -387 0 -21 22 -35 187 -119 l188 -95 2 -189 c3 -161 5 -190 19 -199 13 -8 62 15 226 106 116 65 214 117 219 117 6 0 78 -30 162 -66 84 -36 163 -64 175 -62 20 3 25 20 66 221 41 204 43 219 27 235 -35 35 -49 6 -87 -179 -19 -96 -37 -179 -40 -185 -2 -7 -61 14 -149 52 -80 34 -150 63 -156 63 -6 1 -96 -46 -200 -104 l-189 -105 -5 171 -5 171 -164 83 c-118 58 -160 84 -150 91 45 28 1223 633 1227 630 2 -2 -21 -126 -51 -274 -35 -177 -51 -276 -45 -286 13 -23 47 -20 58 7 5 12 37 161 71 331 59 296 61 310 44 323 -11 7 -21 13 -24 12 -3 0 -321 -163 -706 -363z" fill="#ff005f"/>
<path d="M1185 1349 c-171 -105 -316 -198 -322 -207 -19 -23 -18 -391 0 -416 27 -37 50 -11 122 136 l70 143 245 248 c209 211 243 250 234 265 -6 9 -17 18 -25 19 -8 2 -153 -83 -324 -188z m-62 -181 c-99 -100 -139 -148 -162 -195 -17 -35 -33 -63 -36 -63 -3 0 -5 44 -5 98 l1 97 157 97 c86 53 161 97 167 97 5 1 -49 -59 -122 -131z" fill="#ff005f"/>
</g>
</svg>