<svg xmlns="http://www.w3.org/2000/svg" xmlns:xlink="http://www.w3.org/1999/xlink" width="543" height="200" viewBox="0 0 543 200"><defs><clipPath id="clip-ratetiger-logo-1"><rect width="543" height="200"></rect></clipPath></defs><g id="ratetiger-logo-1" clip-path="url(#clip-ratetiger-logo-1)"><g id="ratetiger-logo" transform="translate(-30.19 -167.01)"><path id="Path_1" data-name="Path 1" d="M595.54,259.836a7.268,7.268,0,0,0-4.7-1.982,18.48,18.48,0,0,0-5.18-.494H565.876a27.285,27.285,0,0,0-4.694.258,15.831,15.831,0,0,0-4.944.737,15.993,15.993,0,0,0-4.694,1.975,16.958,16.958,0,0,0-4.7,3.706,19.926,19.926,0,0,0-5.173,10.131,51.061,51.061,0,0,0-1.231,12.865c0,10.868,1.474,18.775,4.687,23.962a16.371,16.371,0,0,0,3.95,4.207c1.739.987,3.22,1.724,4.694,2.468a37.8,37.8,0,0,0,5.2.987c1.474,0,3.2.25,4.687.25h21.737l.265-10.375h-16.07c-2.218-.243-4.2-.243-6.189-.494a9.5,9.5,0,0,1-5.431-3.213,10.649,10.649,0,0,1-1.238-1.731c-.243-.987-.744-1.982-.987-3.213a19.469,19.469,0,0,1-.995-4.45,33.608,33.608,0,0,1-.236-7.162V284.8a35.393,35.393,0,0,1,.479-4.45,33.4,33.4,0,0,1,1-4.687,8.592,8.592,0,0,1,2.232-3.957,10.736,10.736,0,0,1,4.193-2.962,24.749,24.749,0,0,1,6.425-.995h11.62a4.694,4.694,0,0,1,1.739.258,3.175,3.175,0,0,1,1.717.737,3.216,3.216,0,0,1,1.467,1.732c0,.494.265,1.231.265,2.211v35.846l-.265,10.375a10.33,10.33,0,0,1-3.456,6.926,9.3,9.3,0,0,1-5.917,2.468,46.663,46.663,0,0,1-5.438.243H544.626V339.17h29.156c.995,0,2.468-.25,4.207-.25a51.387,51.387,0,0,0,5.431-.98,59.228,59.228,0,0,0,5.946-2.225,24.966,24.966,0,0,0,4.937-3.964,20.709,20.709,0,0,0,3.95-8.894,53.449,53.449,0,0,0,1-11.112V268.736a16.754,16.754,0,0,0-.751-4.45,6.6,6.6,0,0,0-2.955-4.45" transform="translate(-145.254 -24.567)" fill="#2e307e"></path><path id="Path_2" data-name="Path 2" d="M640.469,262.707a18.089,18.089,0,0,0-3.964,4.937,21.121,21.121,0,0,0-2.232,5.939,50.26,50.26,0,0,0-.987,6.919c0,2.468-.25,5.2,0,7.913,0,4.2.236,8.15.487,12.113a21.276,21.276,0,0,0,3.964,10.375,13.091,13.091,0,0,0,3.957,4.207,46.688,46.688,0,0,0,4.937,2.468,28.788,28.788,0,0,0,4.944.987c1.717,0,3.212.25,4.7.25h34.351V308.441H660.467a18.911,18.911,0,0,0-3.706-.243,12.863,12.863,0,0,1-3.7-1.245,9.107,9.107,0,0,1-4.944-5.931,16.866,16.866,0,0,1-.494-3.942,31.122,31.122,0,0,1-.5-4.45h35.825a14.94,14.94,0,0,0,3.47-.479,13.866,13.866,0,0,0,3.22-1.739,12.49,12.49,0,0,0,2.469-4.694,30.937,30.937,0,0,0,.494-4.944,41.186,41.186,0,0,0-.494-5.445,38.565,38.565,0,0,0-1.238-5.681,17.8,17.8,0,0,0-2.719-4.7,14.078,14.078,0,0,0-4.443-3.957,20.121,20.121,0,0,0-9.4-3.213,80.263,80.263,0,0,0-10.854-.737,36.566,36.566,0,0,0-4.951.236l1.488,10.139h2.962a24.068,24.068,0,0,1,5.924.494,11.348,11.348,0,0,1,5.7,2.218,21.25,21.25,0,0,1,2.726,3.463,9.83,9.83,0,0,1,1.224,4.944,6.989,6.989,0,0,1-.5,2.225c-.5.98-1.238,1.231-2.469,1.474H647.124c.25-2.218.25-3.942.5-5.688,0-1.968.987-3.456,2.476-4.937a5.726,5.726,0,0,1,2.962-2.468,8.073,8.073,0,0,1,3.463-1.231,16.04,16.04,0,0,1,3.463-.494L658.5,257.276a27.2,27.2,0,0,0-6.182.494,19.165,19.165,0,0,0-6.167,1.732,15.829,15.829,0,0,0-5.674,3.213" transform="translate(-171.637 -24.476)" fill="#2e307e"></path><path id="Path_3" data-name="Path 3" d="M728.175,270.708a32.661,32.661,0,0,0-1.245,9.881V318.9h13.6V284.3a50.971,50.971,0,0,1,.5-6.683,14.624,14.624,0,0,1,2.476-5.674,9.34,9.34,0,0,1,5.674-3.463,28.331,28.331,0,0,1,5.924-.744h5.7V257.35h-9.151a21.568,21.568,0,0,0-3.943.258,17.225,17.225,0,0,0-4.937.479,23.405,23.405,0,0,0-4.951,1.739,28.974,28.974,0,0,0-4.708,2.726,17.783,17.783,0,0,0-4.93,8.149" transform="translate(-198.311 -24.564)" fill="#2e307e"></path><path id="Path_4" data-name="Path 4" d="M71.574,229.73a18.6,18.6,0,0,0-5.195.744,6.622,6.622,0,0,0-3.942,1.982c-.25,0-.5.25-.744.494a6.339,6.339,0,0,0-1.731,1.982,16.845,16.845,0,0,0-1.231,3.205,44.012,44.012,0,0,0-.5,5.438v67.464H73.563V247.524a6.847,6.847,0,0,1,.25-2.232,2.327,2.327,0,0,1,1.481-1.968,2.588,2.588,0,0,1,1.717-1.238,7.131,7.131,0,0,1,2.225-.236h24.72a30.312,30.312,0,0,1,4.45.487,6.093,6.093,0,0,1,4.2,1.982c1,.744,1.5,2.218,2.24,3.95,0,.744.479,1.975.479,3.205a8.638,8.638,0,0,1,.243,2.483v4.193a12.307,12.307,0,0,0-.243,2.969,17.231,17.231,0,0,0-.479,3.213h0a24.28,24.28,0,0,1-1.238,2.483,8.737,8.737,0,0,1-2.726,2.461c-.494.25-.737.25-.987.494a33.082,33.082,0,0,1-4.45.5H90.12A6.978,6.978,0,0,0,84.925,272a4.633,4.633,0,0,0-1.732,3.957v1.732a7.285,7.285,0,0,0,1.252,3.7,18.194,18.194,0,0,0,2.712,3.22l2.719,2.712,2.476,2.719,4.686,4.443,16.571,16.564h19.268l-26.946-25.214-3.706-3.706v-.494h10.382a40.758,40.758,0,0,0,5.946-.494,39.646,39.646,0,0,0,4.436-1.968,38.346,38.346,0,0,0,2.962-2.726c.744-.995,1.245-1.982,1.975-2.962a23.125,23.125,0,0,0,2.976-9.394c.243-2.969.487-6.182.487-9.151s-.243-5.931-.487-8.886a20.206,20.206,0,0,0-3.706-8.9,16.106,16.106,0,0,0-3.706-4.2,18.348,18.348,0,0,0-4.465-2.232,16.7,16.7,0,0,0-4.687-.744,27.347,27.347,0,0,0-4.45-.243H71.581" transform="translate(-8.063 -16.706)" fill="#2e307e"></path><path id="Path_5" data-name="Path 5" d="M169.649,257.36v10.382h30.416a17.92,17.92,0,0,1,3.205.494,5.533,5.533,0,0,1,3.22,2.24,5.829,5.829,0,0,1,1.467,2.712,11.229,11.229,0,0,1,.265,2.962v30.394c-.265.25-.508.744-1,1.231a2.048,2.048,0,0,1-1.474.5,3.244,3.244,0,0,0-1.5.243H185.476a6.814,6.814,0,0,1-2.461-.751,3.815,3.815,0,0,1-1.982-1.231,5.509,5.509,0,0,1-1.481-3.213,25.062,25.062,0,0,1-.487-3.706,17.539,17.539,0,0,1,.487-4.694c.494-.994.744-1.731.98-1.731a4.536,4.536,0,0,1,2.976-1.968,8.361,8.361,0,0,1,2.218-.25h22.5V280.592h-26.7a22.136,22.136,0,0,0-5.438.494,9.015,9.015,0,0,0-5.681,3.22,11.853,11.853,0,0,0-4.45,6.675,45.287,45.287,0,0,0-.995,8.157c0,.994.243,2.476.243,3.95a35.5,35.5,0,0,0,.487,4.458,34.267,34.267,0,0,0,1.731,4.443,14.853,14.853,0,0,0,2.976,3.964,10.674,10.674,0,0,0,5.681,2.461c1.968.243,3.706.243,5.438.5h29.414c1.474-.25,2.962-.25,4.45-.5a7.5,7.5,0,0,0,3.942-1.975,7.107,7.107,0,0,0,2.232-3.957,25.976,25.976,0,0,0,.243-3.949v-31.89a31.047,31.047,0,0,0-1.231-8.894,20.619,20.619,0,0,0-3.22-5.681,17.083,17.083,0,0,0-5.438-3.456,23.158,23.158,0,0,0-7.4-1.245H169.656" transform="translate(-38.431 -24.567)" fill="#2e307e"></path><path id="Path_6" data-name="Path 6" d="M250.97,249.5v10.382h8.393v30.9c0,3.95.25,7.162,1.488,9.638,1.238,2.225,2.468,4.436,4.694,5.931a16.285,16.285,0,0,0,6.425,3.456,36.173,36.173,0,0,0,10.124,1.238h8.421V300.674h-3.47c-1.238-.243-2.969-.243-4.951-.494a9.885,9.885,0,0,1-5.431-2.225,5.1,5.1,0,0,1-2.225-2.962,6.037,6.037,0,0,1-1.224-3.456,15.011,15.011,0,0,1-.25-3.456v-28.19h17.05V249.509h-17.05V229.74H259.37v19.769h-8.393" transform="translate(-62.898 -16.709)" fill="#2e307e"></path><path id="Path_7" data-name="Path 7" d="M311.357,273.582a30.581,30.581,0,0,0-.737,6.919c-.25,2.468-.25,5.2-.25,7.913a95.511,95.511,0,0,0,.751,12.113,23.345,23.345,0,0,0,3.706,10.375,17.057,17.057,0,0,0,4.186,4.207,28.1,28.1,0,0,0,4.7,2.468,34.345,34.345,0,0,0,4.944.987c1.724,0,3.456.25,4.937.25h34.1V308.441H337.537a18.88,18.88,0,0,0-3.7-.243,21.227,21.227,0,0,1-3.7-1.245,6.732,6.732,0,0,1-2.962-2.218,13.249,13.249,0,0,1-1.982-3.713c-.243-.98-.243-2.461-.494-3.942a28.825,28.825,0,0,1-.243-4.45H360.3a17.154,17.154,0,0,0,3.456-.479,11.655,11.655,0,0,0,2.955-1.739,7.988,7.988,0,0,0,2.483-4.694,30.925,30.925,0,0,0,.494-4.944,40.788,40.788,0,0,0-.243-5.445,20.994,20.994,0,0,0-1.481-5.681,13.16,13.16,0,0,0-2.712-4.7,16.509,16.509,0,0,0-4.207-3.957,22.171,22.171,0,0,0-9.638-3.213,80.209,80.209,0,0,0-10.883-.737,38.125,38.125,0,0,0-4.93.236l1.474,10.139h2.969a27.173,27.173,0,0,1,6.182.494,10.553,10.553,0,0,1,5.438,2.218,13.122,13.122,0,0,1,2.719,3.463c.987,1.238,1.224,2.955,1.224,4.944a3.734,3.734,0,0,1-.487,2.225c-.25.98-1.231,1.231-2.476,1.474H324.472a40.944,40.944,0,0,1,.243-5.688,7.958,7.958,0,0,1,2.476-4.937,8.721,8.721,0,0,1,2.962-2.468,11.235,11.235,0,0,1,3.456-1.231,18.633,18.633,0,0,1,3.456-.494l-1.474-10.139a23.952,23.952,0,0,0-5.924.494,20.658,20.658,0,0,0-6.432,1.732,15.168,15.168,0,0,0-5.445,3.213,14.634,14.634,0,0,0-3.942,4.937,32.573,32.573,0,0,0-2.483,5.939" transform="translate(-79.798 -24.476)" fill="#2e307e"></path><path id="Path_8" data-name="Path 8" d="M396.04,229.73v12.113h31.639v69.2h15.068v-69.2H474.63V229.73H396.04" transform="translate(-104.172 -16.706)" fill="#2e307e"></path><path id="Path_9" data-name="Path 9" d="M510.7,229.73V240.6h13.6V229.73H510.7" transform="translate(-136.793 -16.706)" fill="#2e307e"></path><path id="Path_10" data-name="Path 10" d="M524.3,257.36H510.7V318.9h13.6V257.36" transform="translate(-136.793 -24.567)" fill="#2e307e"></path><g id="Group_1" data-name="Group 1" transform="translate(29.89 171.01)"><path id="Path_11" data-name="Path 11" d="M58.317,224.975a18.871,18.871,0,0,1,5.194-.744h8.65L58.066,210.4H29.89v16.557H54.367a6.662,6.662,0,0,1,3.942-1.982" transform="translate(-29.89 -182.217)" fill="#f47920"></path><path id="Path_12" data-name="Path 12" d="M85.324,246.657a7.131,7.131,0,0,0-2.225.236,2.6,2.6,0,0,0-1.717,1.238A2.314,2.314,0,0,0,79.9,250.1a6.848,6.848,0,0,0-.25,2.232v3.942h28.419l-9.631-9.623H85.331" transform="translate(-44.047 -192.53)" fill="#f47920"></path><path id="Path_13" data-name="Path 13" d="M50.661,240.2a16.847,16.847,0,0,1,1.231-3.205h-22v16.542H50.16v-7.9a43.763,43.763,0,0,1,.5-5.438" transform="translate(-29.89 -189.782)" fill="#f47920"></path><path id="Path_14" data-name="Path 14" d="M50.16,278.9V263.58H29.89V278.9H50.16" transform="translate(-29.89 -197.347)" fill="#f47920"></path><path id="Path_15" data-name="Path 15" d="M91,288.79H79.65v15.326H95.963L93.244,301.4a17.649,17.649,0,0,1-2.712-3.22,7.353,7.353,0,0,1-1.252-3.7v-1.731a4.616,4.616,0,0,1,1.732-3.957" transform="translate(-44.047 -204.519)" fill="#f47920"></path><path id="Path_16" data-name="Path 16" d="M79.647,263.58V278.9H116.96a8.661,8.661,0,0,0,2.726-2.461,24.278,24.278,0,0,0,1.238-2.483L110.535,263.58H79.64" transform="translate(-44.044 -197.347)" fill="#f47920"></path><path id="Path_17" data-name="Path 17" d="M29.89,340.27v16.8H58.073l16.564-16.8H65.493v2.218H50.16V340.27H29.89" transform="translate(-29.89 -219.165)" fill="#f47920"></path><path id="Path_18" data-name="Path 18" d="M29.89,314.01v16.313H50.16V314.01H29.89" transform="translate(-29.89 -211.694)" fill="#f47920"></path><path id="Path_19" data-name="Path 19" d="M119.71,302.26v.494l3.706,3.706,4.207-4.2H119.71" transform="translate(-55.444 -208.351)" fill="#f47920"></path><path id="Path_20" data-name="Path 20" d="M103.118,318.453l-4.687-4.443H79.65v16.313H91.5l11.62-11.87" transform="translate(-44.047 -211.694)" fill="#f47920"></path><path id="Path_21" data-name="Path 21" d="M29.89,304.116H50.16V288.79H29.89v15.326" transform="translate(-29.89 -204.519)" fill="#f47920"></path><path id="Path_22" data-name="Path 22" d="M29.89,171.01v25.45H55.6L29.89,171.01" transform="translate(-29.89 -171.01)" fill="#f47920"></path><path id="Path_23" data-name="Path 23" d="M29.89,367.19v25.7L55.6,367.19H29.89" transform="translate(-29.89 -226.824)" fill="#f47920"></path></g><text id="by_eRevMax" data-name="by eRevMax" transform="translate(387.509 354.218)" fill="#dba628" font-size="32" font-family="SegoeUI, Segoe UI"><tspan x="0" y="0">b</tspan><tspan y="0">y </tspan><tspan y="0">e</tspan><tspan y="0">R</tspan><tspan y="0">evM</tspan><tspan y="0">ax</tspan></text></g></g></svg>