<?xml version="1.0" standalone="no"?>
<!DOCTYPE svg PUBLIC "-//W3C//DTD SVG 20010904//EN"
 "http://www.w3.org/TR/2001/REC-SVG-20010904/DTD/svg10.dtd">
<svg version="1.0" xmlns="http://www.w3.org/2000/svg"
 width="1040.000000pt" height="1300.000000pt" viewBox="0 0 1040.000000 1300.000000"
 preserveAspectRatio="xMidYMid meet">

<g transform="translate(0.000000,1300.000000) scale(0.100000,-0.100000)"
fill="#000000" stroke="none">
<path d="M6168 11937 c-35 -10 -36 -12 -42 -66 -3 -31 -4 -83 -4 -116 1 -33 1
-89 0 -125 0 -36 0 -76 0 -90 1 -14 1 -54 0 -90 0 -36 0 -74 1 -85 0 -11 0
-48 0 -82 -1 -80 -1 -88 0 -143 0 -25 -6 -56 -13 -70 -7 -13 -14 -55 -16 -94
-3 -39 -5 -80 -6 -91 -1 -11 2 -27 6 -36 5 -12 1 -18 -17 -23 -15 -3 -30 -18
-38 -38 -16 -39 -16 -136 0 -195 13 -48 65 -117 102 -134 19 -9 31 -29 48 -83
31 -95 99 -230 155 -306 25 -34 46 -67 47 -74 4 -76 -4 -332 -12 -334 -5 -2
-9 -10 -9 -17 0 -8 -20 -28 -44 -44 -24 -17 -46 -35 -48 -39 -1 -5 -37 -26
-78 -46 -41 -20 -88 -45 -105 -56 -16 -10 -37 -19 -46 -19 -8 -1 -30 -12 -48
-26 -19 -13 -72 -36 -120 -50 -47 -14 -106 -32 -131 -40 -25 -8 -58 -17 -75
-19 -16 -2 -43 -11 -60 -20 -16 -9 -46 -19 -65 -22 -19 -4 -44 -13 -55 -20
-11 -7 -40 -16 -65 -20 -25 -4 -54 -13 -65 -19 -11 -7 -38 -18 -60 -25 -22 -6
-55 -18 -73 -27 -18 -8 -50 -17 -70 -20 -20 -3 -44 -11 -52 -18 -8 -7 -35 -18
-60 -25 -25 -7 -52 -16 -61 -20 -9 -5 -43 -4 -75 1 -33 5 -97 11 -144 13 -99
5 -188 11 -355 26 -66 5 -149 12 -185 14 -36 2 -119 9 -185 15 -143 14 -148
14 -248 4 -71 -7 -80 -6 -97 12 -24 26 -44 106 -37 150 8 48 55 149 81 173 11
12 48 36 81 55 36 20 60 40 59 49 -1 14 35 16 328 16 181 0 333 3 338 8 5 5
10 44 11 88 3 66 1 80 -15 91 -11 9 -26 11 -40 6 -29 -10 -107 -2 -110 13 -2
6 -11 63 -21 126 -22 151 -77 292 -172 440 -55 86 -236 258 -329 312 -94 56
-193 101 -251 117 -43 12 -43 12 -44 59 -1 97 -6 115 -39 145 l-31 28 -230 -3
-229 -3 -27 -27 c-25 -25 -27 -34 -28 -110 l-2 -82 -44 -12 c-99 -26 -252
-110 -353 -194 -77 -64 -183 -177 -205 -219 -7 -14 -19 -33 -26 -41 -18 -20
-78 -141 -106 -210 -29 -73 -58 -204 -59 -260 -1 -79 -7 -89 -48 -83 -42 6
-52 6 -104 -3 -38 -6 -38 -6 -40 -58 -2 -70 2 -109 12 -119 4 -5 149 -9 321
-10 281 0 309 -2 267 -14 -49 -15 -67 -38 -45 -60 7 -7 74 -34 147 -59 171
-58 262 -105 325 -170 28 -28 87 -90 133 -137 97 -99 258 -217 429 -313 101
-57 122 -73 127 -96 5 -26 9 -28 50 -28 49 0 62 -10 48 -37 -14 -30 0 -87 23
-91 11 -2 27 -6 35 -9 8 -4 35 -8 60 -9 25 -2 74 -10 110 -18 36 -8 103 -20
150 -26 47 -5 121 -15 165 -20 44 -5 94 -15 110 -21 17 -6 65 -12 108 -15 44
-2 94 -11 112 -20 19 -9 39 -13 45 -9 12 7 134 -12 160 -25 20 -11 185 8 233
26 20 8 52 14 71 14 18 0 47 7 63 15 17 9 48 17 69 20 22 2 57 11 79 19 22 8
51 15 65 16 14 0 43 7 65 15 22 8 56 14 76 15 19 0 40 5 45 10 6 6 39 17 75
25 35 8 85 20 110 26 26 7 54 9 62 6 20 -7 38 -74 43 -153 2 -33 8 -73 14 -89
7 -18 8 -75 5 -159 -7 -149 -10 -233 -17 -466 -9 -271 -21 -620 -34 -985 -3
-99 -7 -218 -8 -265 -2 -76 -6 -173 -18 -517 -2 -56 0 -100 3 -97 4 2 3 -13
-2 -34 -5 -20 -9 -61 -9 -89 0 -46 3 -53 23 -58 27 -7 27 -10 32 -235 2 -96 7
-201 10 -234 4 -37 2 -63 -6 -72 -8 -10 -9 -21 0 -41 6 -16 11 -97 11 -193 0
-91 3 -189 6 -219 4 -34 2 -62 -6 -76 -8 -16 -9 -28 -2 -42 8 -15 15 -195 12
-285 -2 -36 0 -74 6 -131 4 -36 2 -63 -5 -71 -8 -9 -8 -22 0 -45 7 -19 9 -61
6 -99 -3 -37 -1 -89 5 -116 8 -36 7 -59 -2 -87 -10 -31 -10 -41 -1 -53 9 -10
11 -36 7 -78 -3 -35 -5 -70 -4 -78 0 -8 3 -55 5 -105 3 -49 5 -120 5 -157 0
-93 0 -100 2 -203 2 -49 3 -115 4 -145 0 -30 1 -70 2 -87 1 -34 2 -154 2 -175
0 -7 2 -67 4 -133 3 -66 5 -138 5 -160 -1 -57 0 -80 6 -270 4 -148 6 -261 4
-322 0 -10 3 -65 7 -122 8 -111 0 -141 -38 -141 -10 0 -28 -13 -40 -30 -12
-16 -33 -33 -48 -37 -14 -3 -41 -21 -59 -40 -20 -20 -44 -33 -59 -33 -13 0
-27 -6 -30 -14 -3 -8 -27 -23 -53 -34 -41 -18 -51 -29 -84 -93 -32 -62 -35
-74 -24 -94 22 -42 79 -72 152 -80 37 -4 86 -13 107 -21 25 -9 46 -11 56 -5 9
5 50 7 91 4 64 -4 84 -2 126 18 28 12 55 23 62 25 6 1 28 20 48 43 21 23 44
41 51 41 8 0 17 8 21 18 9 25 54 72 70 72 7 0 13 6 13 13 0 21 36 49 66 53 15
1 30 7 33 12 3 5 22 12 41 16 19 3 46 15 59 25 22 17 24 25 22 84 -3 79 17
127 52 127 13 0 32 6 42 14 20 15 20 12 25 520 1 88 5 167 10 176 5 9 4 33 -3
57 -8 31 -8 54 2 96 9 35 10 60 4 71 -6 10 -6 38 -1 69 5 29 8 60 8 70 -1 9
-1 43 -1 75 0 31 0 96 0 144 0 47 4 89 10 92 6 4 6 19 -1 43 -5 20 -7 57 -3
82 3 25 5 81 5 124 -1 46 3 84 10 92 8 10 8 19 1 34 -13 23 -15 117 -3 125 4
2 6 79 5 170 -1 91 1 167 5 170 4 2 6 77 5 167 -2 107 1 166 8 175 8 9 8 23 2
41 -6 16 -8 46 -6 68 6 62 12 218 12 320 1 38 8 218 11 260 1 11 -1 40 -5 65
-6 42 -5 44 9 26 15 -18 19 -88 17 -278 -1 -58 0 -74 5 -208 3 -69 5 -140 5
-157 -1 -47 0 -75 5 -193 3 -58 5 -126 5 -152 0 -69 1 -83 6 -183 2 -49 5
-120 5 -157 0 -38 0 -78 0 -90 2 -158 4 -195 11 -206 5 -7 8 -50 7 -95 -2 -93
-2 -200 0 -237 1 -14 2 -72 4 -130 1 -58 6 -122 10 -143 5 -25 3 -44 -5 -53
-9 -11 -9 -21 1 -43 6 -16 11 -64 10 -107 -1 -44 1 -103 5 -132 5 -37 4 -61
-5 -77 -10 -19 -10 -27 -1 -39 8 -9 12 -46 12 -98 -1 -113 9 -419 15 -495 4
-45 10 -63 20 -63 11 0 13 -16 12 -72 -3 -121 31 -178 106 -178 13 0 31 -6 39
-14 8 -8 29 -21 48 -29 19 -8 74 -56 123 -107 50 -50 109 -103 132 -116 44
-26 138 -48 189 -45 17 1 62 3 100 4 39 1 75 5 81 9 6 4 38 11 70 14 44 5 69
15 97 37 39 30 39 30 32 86 -6 51 -12 61 -63 114 -31 32 -64 56 -72 54 -8 -2
-35 8 -60 22 -53 30 -226 156 -236 172 -9 15 14 29 48 29 17 0 31 8 38 21 6
11 13 86 15 167 2 81 4 154 4 162 1 8 -2 39 -5 69 -4 34 -2 62 6 76 9 17 9 28
1 43 -12 23 -15 115 -4 125 4 4 8 121 9 260 1 138 3 261 3 272 0 11 -2 46 -5
79 -4 38 -2 67 7 82 9 19 10 26 0 38 -9 11 -11 34 -7 73 6 60 6 67 5 143 0 25
2 171 5 325 3 154 5 288 5 298 -1 15 0 80 0 172 0 14 0 51 0 83 -1 61 8 567
10 592 1 8 -2 41 -5 73 -4 39 -2 66 6 81 9 18 9 29 1 44 -14 27 -14 115 0 129
8 8 8 20 2 40 -6 15 -8 37 -6 48 2 11 4 144 4 295 0 151 3 283 5 292 3 9 18
20 34 23 30 6 30 8 32 78 1 40 2 83 1 97 0 14 -1 52 -2 85 -1 33 -2 69 -2 80
-1 11 -3 61 -5 110 -6 113 -18 469 -31 875 -3 74 -7 196 -9 270 -3 74 -5 147
-5 163 0 35 0 43 -5 152 -2 50 -6 104 -9 120 -6 27 -5 28 8 12 15 -18 33 -139
23 -156 -3 -5 1 -25 9 -45 9 -20 17 -71 20 -114 2 -42 9 -97 14 -122 6 -25 10
-69 11 -98 0 -29 5 -62 11 -73 5 -11 12 -54 14 -97 2 -42 8 -90 15 -106 6 -16
12 -61 13 -100 2 -40 6 -76 9 -81 7 -12 18 -81 23 -150 4 -45 15 -123 30 -212
3 -19 12 -33 20 -33 7 0 15 -12 17 -27 2 -22 8 -28 26 -27 27 1 27 2 -2 -49
-24 -41 -79 -167 -95 -217 -5 -14 -19 -47 -31 -73 -26 -56 -19 -89 26 -109 34
-16 52 -4 85 56 31 57 39 47 39 -52 1 -37 7 -114 14 -171 14 -114 28 -137 77
-127 21 4 29 0 37 -19 15 -32 55 -42 87 -21 14 9 25 21 25 26 0 6 15 10 34 10
44 0 66 22 66 66 0 29 3 34 23 34 52 0 56 13 47 155 -17 250 -30 360 -46 415
-20 69 -24 149 -7 166 7 7 13 34 13 61 -1 112 -10 231 -20 273 -7 25 -9 67 -6
94 3 27 1 56 -3 65 -9 16 -21 160 -25 291 -1 36 -6 80 -10 98 -9 37 -17 149
-20 267 -1 44 -6 87 -11 95 -5 8 -10 53 -11 100 -1 47 -4 92 -8 100 -6 17 -17
163 -20 280 -2 41 -6 85 -10 97 -8 24 -17 144 -21 268 -2 44 -8 100 -15 125
-7 26 -10 69 -6 101 3 31 1 60 -4 65 -5 5 -11 52 -14 104 -5 85 -14 161 -32
257 -4 22 -27 52 -70 95 -66 64 -116 86 -199 88 -17 0 -40 7 -52 15 -12 9 -62
36 -110 62 -48 25 -129 70 -178 99 -50 30 -100 54 -110 54 -11 0 -45 26 -77
57 l-58 57 0 171 0 172 54 104 c55 105 98 221 110 294 6 32 14 43 39 55 21 10
42 35 65 78 29 53 35 76 39 145 5 76 3 85 -21 119 -14 21 -23 44 -21 51 3 6
-4 55 -16 107 -11 52 -22 105 -24 117 -2 12 -8 37 -13 55 -13 41 -13 548 0
548 5 0 4 9 -2 20 -6 12 -9 61 -7 120 3 91 2 103 -16 115 -14 10 -27 11 -44 4
-14 -5 -29 -6 -35 -3 -8 5 -915 6 -1048 1 -25 -1 -58 1 -75 4 -16 3 -46 1 -67
-4z m58 -78 c30 -29 54 -55 54 -59 0 -4 -27 2 -60 14 -59 21 -60 22 -60 58 0
21 3 38 6 38 3 0 30 -23 60 -51z m149 21 c16 -16 27 -32 24 -34 -6 -6 -88 47
-89 57 -1 18 39 4 65 -23z m177 -7 c21 -20 38 -41 38 -45 0 -11 -109 64 -110
75 -1 19 38 3 72 -30z m171 2 c15 -19 25 -35 22 -35 -8 0 -95 62 -95 67 0 2
10 3 23 3 13 0 33 -14 50 -35z m166 10 c13 -14 18 -25 13 -25 -15 0 -72 34
-72 43 0 16 36 5 59 -18z m164 11 c18 -14 22 -26 10 -26 -5 0 -19 9 -33 20
-16 13 -20 20 -10 19 8 0 23 -6 33 -13z m172 3 c11 -17 0 -20 -21 -4 -17 13
-17 14 -2 15 9 0 20 -5 23 -11z m173 -25 c17 -5 22 -14 22 -40 0 -19 -4 -34
-8 -34 -5 0 -28 18 -52 40 l-43 40 29 0 c16 0 39 -3 52 -6z m-88 -85 l35 -1
-40 -12 c-35 -11 -41 -11 -61 8 -27 26 -20 42 9 21 12 -8 37 -15 57 -16z
m-158 -56 c-22 -9 -28 -9 -30 2 -2 7 -14 21 -28 29 -45 30 -24 35 30 8 l54
-27 -26 -12z m-857 42 l30 -15 -35 6 c-19 4 -44 10 -55 15 -18 7 -18 8 5 8 14
0 39 -6 55 -14z m719 -54 l30 -20 -29 -7 c-21 -5 -30 -3 -38 12 -6 10 -24 31
-41 47 l-31 29 40 -21 c22 -11 53 -29 69 -40z m406 30 c0 -10 -6 -23 -12 -29
-15 -11 -524 -152 -551 -152 -9 0 -26 -5 -36 -11 -20 -13 -31 -11 -366 77 -93
25 -181 49 -195 54 -14 4 -41 11 -62 15 -40 6 -56 30 -30 44 17 9 125 -16 496
-114 110 -29 143 -35 165 -26 14 5 105 31 201 57 96 25 220 59 275 74 121 35
115 34 115 11z m-911 -32 c58 -17 39 -22 -23 -6 -27 7 -52 19 -54 26 -3 9 1
10 14 3 11 -6 39 -16 63 -23z m333 -9 c32 -19 58 -38 58 -41 0 -6 -44 -21 -45
-16 0 1 -20 24 -45 51 -51 55 -48 55 32 6z m-168 -13 c23 -13 62 -30 88 -37
26 -7 45 -16 43 -21 -9 -14 -136 29 -160 56 -30 31 -23 32 29 2z m746 -67 c0
-5 -12 -10 -27 -9 -25 0 -26 1 -8 9 27 12 35 12 35 0z m-1201 -33 c8 -12 62
-69 120 -126 108 -105 124 -130 35 -54 -85 74 -175 142 -195 148 -13 4 -19 16
-19 36 0 27 3 30 23 24 12 -4 28 -17 36 -28z m61 -3 c0 -2 -9 -4 -20 -4 -11 0
-20 4 -20 9 0 5 9 7 20 4 11 -3 20 -7 20 -9z m1045 6 c-3 -5 -15 -10 -27 -10
-17 0 -18 -2 -8 -15 15 -18 7 -19 -37 -3 l-34 12 38 12 c49 15 76 17 68 4z
m95 -32 l0 -42 -36 35 c-35 34 -35 34 -12 41 44 12 48 10 48 -34z m-1024 2
c16 -5 49 -15 74 -21 42 -12 43 -13 17 -18 l-27 -6 26 -28 c42 -45 23 -39 -31
10 -28 24 -63 51 -80 58 -35 16 -22 19 21 5z m794 0 c0 -5 -7 -10 -16 -10 -9
0 -12 -5 -8 -12 5 -8 1 -9 -12 -4 -11 4 1 -13 26 -38 24 -25 41 -46 37 -46 -4
0 -37 20 -74 44 l-66 45 44 11 c24 6 49 13 54 15 6 2 11 4 13 4 1 1 2 -3 2 -9z
m-153 -46 c-34 -18 -27 -34 39 -93 50 -44 57 -69 8 -28 -16 13 -55 43 -87 65
l-59 41 44 11 c24 6 48 13 53 15 26 9 27 3 2 -11z m-352 -31 c52 -13 63 -19
43 -21 -27 -3 -27 -3 -10 -30 16 -26 16 -27 -3 -12 -11 8 -29 22 -41 32 -11
10 -38 27 -60 38 -21 12 -30 18 -19 16 11 -3 52 -13 90 -23z m230 -3 c-3 -5
-18 -10 -33 -10 -25 0 -24 -2 28 -55 58 -59 58 -75 0 -24 -19 16 -47 37 -62
47 -37 22 -35 28 10 40 50 13 64 14 57 2z m420 -14 c22 -10 50 -22 63 -27 18
-7 22 -16 22 -49 0 -22 -1 -40 -3 -40 -5 0 -137 130 -137 135 0 4 3 5 8 3 4
-2 25 -12 47 -22z m-900 -257 c38 -36 9 -18 -75 46 -47 36 -111 82 -142 103
-52 33 -58 41 -58 70 l0 34 128 -118 c70 -64 136 -125 147 -135z m985 7 l0
-40 -92 89 c-51 49 -102 97 -113 108 -11 10 31 -12 92 -50 l113 -68 0 -39z
m-1244 76 c-2 -4 33 -41 79 -82 47 -41 83 -75 81 -78 -2 -2 -43 18 -90 43 -81
44 -86 49 -86 79 0 18 3 36 7 39 9 10 15 9 9 -1z m1102 -113 c75 -55 93 -79
58 -79 -7 0 -45 32 -83 70 -39 39 -68 70 -64 70 3 0 43 -28 89 -61z m-67 -111
c-17 -6 -32 4 -84 56 -99 100 -98 104 6 26 86 -65 96 -75 78 -82z m-132 -40
c-15 -6 -38 12 -109 83 -49 50 -90 92 -90 94 0 2 49 -35 109 -83 90 -72 106
-88 90 -94z m-263 89 c27 -24 70 -59 96 -79 44 -33 51 -48 24 -48 -6 0 -50 38
-98 85 -91 90 -104 115 -22 42z m-90 -77 c47 -38 90 -70 95 -70 6 0 7 -4 4
-10 -14 -22 -53 -10 -79 25 -15 19 -48 55 -74 80 -71 67 -42 54 54 -25z m-541
40 c3 -5 -3 -10 -14 -10 -12 0 -21 5 -21 10 0 6 6 10 14 10 8 0 18 -4 21 -10z
m1212 -20 c-10 -18 -27 -27 -27 -16 0 2 -3 11 -6 19 -3 10 1 17 13 19 27 7 34
-1 20 -22z m-842 -28 l30 -25 -30 7 c-16 4 -30 8 -30 9 0 1 -11 15 -25 31
l-25 29 25 -13 c14 -7 39 -24 55 -38z m794 -32 c6 -25 14 -63 20 -85 6 -22 15
-101 21 -175 13 -168 13 -171 26 -194 9 -15 15 -16 33 -7 11 7 21 20 21 31 0
10 9 39 20 65 11 26 20 68 21 93 0 42 1 44 11 22 13 -32 3 -138 -17 -187 -28
-66 -86 -114 -98 -80 -2 6 -7 -1 -11 -18 -55 -256 -130 -410 -261 -541 -152
-150 -305 -184 -467 -104 -183 91 -325 254 -429 495 -12 28 -23 57 -24 65 -1
8 -8 35 -14 59 -11 38 -11 45 3 53 9 5 16 15 16 23 0 8 10 23 21 34 21 20 22
21 6 78 -25 88 -32 249 -12 279 8 13 15 35 15 49 0 28 15 61 37 84 12 12 25
10 91 -13 42 -15 102 -31 133 -36 31 -5 87 -21 125 -36 96 -36 143 -43 195
-28 23 7 46 11 50 8 5 -2 25 5 46 16 21 11 53 20 71 20 18 0 43 7 56 15 12 8
45 18 72 21 27 4 54 11 61 16 16 13 137 37 145 29 4 -4 12 -27 17 -51z m109
18 c0 -7 4 -31 8 -53 l7 -40 -30 27 c-24 23 -32 26 -43 15 -8 -6 -1 5 16 25
31 40 40 45 42 26z m-1230 -10 c-3 -7 -11 -13 -18 -13 -7 0 -15 6 -17 13 -3 7
4 12 17 12 13 0 20 -5 18 -12z m-2708 -46 c28 -28 30 -45 21 -138 -1 -6 -11
-9 -23 -7 -21 4 -23 10 -23 61 l0 57 -207 3 c-201 2 -207 2 -213 -18 -4 -12
-4 -38 0 -59 6 -34 4 -39 -17 -45 -40 -10 -41 -8 -34 61 5 49 13 74 28 90 21
22 26 23 231 23 l209 0 28 -28z m2634 -1 c17 -19 17 -20 -3 -31 -19 -10 -21
-8 -21 20 0 35 1 36 24 11z m-2692 -77 c0 -13 1 -29 2 -35 1 -8 -53 -12 -176
-13 l-178 -1 0 35 0 36 175 0 175 1 2 -23z m3977 -31 c-19 -22 -29 -15 -29 19
0 30 0 31 20 13 15 -14 17 -21 9 -32z m-1249 12 c0 -8 -4 -15 -9 -15 -13 0
-22 16 -14 24 11 11 23 6 23 -9z m-2800 -65 c47 -7 68 -6 79 3 12 9 13 9 7 0
-5 -9 -1 -13 13 -13 71 0 325 -108 416 -177 136 -104 281 -268 339 -383 59
-117 115 -326 116 -433 0 -17 -49 -24 -119 -16 -42 5 -80 4 -85 -1 -6 -4 -44
-5 -86 0 -41 4 -82 5 -90 0 -8 -4 -46 -4 -85 0 -38 5 -77 5 -85 1 -8 -4 -46
-5 -85 -1 -38 4 -77 3 -86 -1 -8 -4 -48 -3 -89 2 -45 5 -77 5 -84 0 -7 -6 -40
-6 -85 -1 -44 6 -80 6 -90 1 -17 -9 -79 -7 -134 5 -15 3 -33 1 -40 -4 -8 -7
-39 -7 -87 -2 -41 5 -81 5 -88 1 -7 -4 -45 -4 -84 0 -39 5 -78 4 -87 0 -9 -4
-50 -5 -91 -1 -41 4 -79 5 -84 2 -14 -8 -155 -8 -149 1 6 9 -4 9 -25 -2 -9 -4
-46 -5 -82 -1 -37 4 -73 3 -84 -2 -33 -17 -39 4 -26 84 16 104 37 181 73 273
27 70 91 191 107 205 4 3 21 25 38 50 43 62 57 76 137 146 84 73 139 111 223
153 133 67 284 108 427 114 33 2 67 4 75 5 8 1 44 -3 80 -8z m2770 -30 c0 -10
-4 -22 -10 -25 -6 -4 -10 7 -10 25 0 18 4 29 10 25 6 -3 10 -15 10 -25z m1320
4 c0 -22 -2 -25 -15 -14 -12 10 -13 16 -4 26 16 20 19 18 19 -12z m-1365 -51
c3 -38 12 -79 20 -93 25 -47 48 -141 37 -152 -18 -18 -58 17 -88 77 -45 92
-38 235 11 235 9 0 15 -22 20 -67z m1325 -32 c0 -11 -4 -23 -10 -26 -6 -4 -10
5 -10 19 0 14 5 26 10 26 6 0 10 -9 10 -19z m-1235 -39 c-8 -9 -25 20 -18 31
3 5 10 2 15 -7 6 -10 7 -20 3 -24z m373 -817 c187 -124 356 -117 534 23 32 24
64 55 73 68 8 13 20 24 25 24 14 0 13 -287 -1 -296 -6 -3 -9 -17 -6 -30 6 -32
2 -36 -88 -84 -44 -23 -126 -67 -183 -97 l-102 -55 -38 19 c-146 73 -335 181
-339 193 -2 8 -9 23 -14 32 -5 10 -9 86 -9 169 l0 151 40 -36 c22 -19 70 -56
108 -81z m-4464 -130 c50 -48 47 -52 -24 -31 -44 13 -58 31 -46 62 9 22 21 17
70 -31z m146 30 c8 -9 8 -15 2 -15 -18 0 -42 12 -42 21 0 14 26 10 40 -6z
m171 -1 c11 -14 10 -16 -6 -13 -23 4 -67 -30 -58 -44 3 -6 1 -7 -5 -3 -6 3
-20 -7 -32 -24 -25 -35 -39 -37 -71 -10 l-24 20 35 -12 c34 -11 35 -11 85 45
27 31 53 57 56 57 4 0 13 -7 20 -16z m163 10 c9 -3 16 -13 16 -20 0 -12 -4
-12 -20 -4 -11 6 -20 15 -20 20 0 12 3 12 24 4z m171 -5 c4 -6 14 -8 22 -4 13
4 14 3 4 -9 -10 -12 -16 -13 -32 -3 -10 6 -19 15 -19 19 0 12 18 10 25 -3z
m195 -20 c0 -6 -7 -6 -20 1 -11 6 -20 15 -20 21 0 6 7 6 20 -1 11 -6 20 -15
20 -21z m158 19 c20 -20 14 -28 -13 -16 -13 6 -22 15 -19 19 7 12 18 11 32 -3z
m185 -8 c10 -10 7 -12 -11 -7 -23 5 -23 5 -7 -13 10 -11 23 -17 29 -13 6 3 8
2 3 -2 -4 -5 10 -27 30 -49 21 -22 28 -32 17 -23 -16 13 -23 15 -26 6 -3 -9
-9 -9 -26 0 -29 15 -28 31 1 24 17 -5 12 5 -27 45 -47 48 -48 50 -22 48 15 -2
33 -9 39 -16z m167 0 c10 -18 9 -19 -14 -8 -14 6 -23 15 -20 19 9 15 23 10 34
-11z m171 4 c12 -14 11 -16 -5 -13 -11 2 -21 10 -24 17 -5 17 13 15 29 -4z
m169 6 c8 -5 12 -12 9 -15 -8 -8 -39 5 -39 16 0 11 11 11 30 -1z m171 0 c10
-6 19 -15 19 -21 0 -6 -7 -6 -20 1 -11 6 -25 8 -30 5 -6 -3 -7 1 -4 9 7 19 9
19 35 6z m174 -1 c4 -6 5 -12 2 -15 -7 -7 -37 7 -37 17 0 13 27 11 35 -2z
m175 1 c8 -5 11 -12 8 -16 -10 -9 -38 3 -38 16 0 12 10 13 30 0z m169 -26 c28
-6 31 -10 31 -45 0 -22 -3 -39 -7 -39 -5 1 -28 21 -53 45 -48 48 -44 53 29 39z
m-2039 -54 c-13 -8 -12 -11 5 -24 20 -16 10 -21 -19 -10 -19 7 -21 30 -3 37
21 9 33 7 17 -3z m186 -37 c-8 -9 -46 18 -40 28 4 6 13 4 25 -7 11 -9 17 -19
15 -21z m158 22 c11 -8 17 -17 14 -21 -8 -8 -48 14 -48 26 0 14 12 12 34 -5z
m191 -15 c3 -6 0 -10 -7 -10 -15 0 -38 19 -38 32 0 10 36 -8 45 -22z m521 -7
c-9 -10 -46 9 -46 23 0 12 4 12 25 -2 14 -9 24 -19 21 -21z m344 5 c0 -12 -24
-10 -38 4 -20 20 -13 28 13 16 14 -6 25 -15 25 -20z m175 2 c3 -6 0 -10 -7
-10 -15 0 -38 19 -38 32 0 10 36 -8 45 -22z m330 10 c14 -16 15 -20 4 -20 -16
0 -39 19 -39 32 0 14 16 9 35 -12z m-1205 -5 c10 -12 10 -15 -3 -15 -8 0 -20
7 -27 15 -10 12 -10 15 3 15 8 0 20 -7 27 -15z m520 0 c10 -12 10 -15 -3 -15
-8 0 -20 7 -27 15 -10 12 -10 15 3 15 8 0 20 -7 27 -15z m515 4 c12 -19 -5
-23 -22 -6 -16 16 -16 17 -1 17 9 0 20 -5 23 -11z m-632 -52 l150 1 -63 -37
c-55 -31 -69 -46 -111 -116 -27 -44 -60 -90 -74 -103 -40 -34 -76 -21 -224 77
-47 31 -128 79 -180 108 -53 28 -97 56 -99 62 -2 7 67 10 208 9 116 0 214 2
217 6 3 3 10 3 16 -1 5 -3 77 -6 160 -6z m287 -12 c0 -2 -19 -14 -42 -26 -84
-42 -104 -64 -143 -156 -32 -76 -36 -96 -32 -144 5 -62 37 -133 67 -149 19
-10 20 -21 20 -155 l0 -145 -67 37 c-191 104 -410 266 -498 368 -134 156 -190
192 -415 271 -69 25 -132 47 -140 50 -13 4 -13 6 0 14 29 18 123 10 195 -16
76 -28 134 -45 236 -68 70 -15 164 -58 264 -120 66 -40 126 -60 154 -51 30 9
70 54 112 127 45 77 81 108 165 143 52 21 124 33 124 20z m3407 -43 c-35 -4
-41 0 -32 27 l6 21 28 -22 28 -23 -30 -3z m-837 31 c0 -5 7 -29 15 -55 8 -27
12 -48 10 -48 -8 0 -85 72 -85 80 0 7 38 28 53 29 4 1 7 -2 7 -6z m127 -65
l78 -42 -36 -14 c-38 -14 -59 -46 -59 -88 0 -14 -4 -23 -9 -20 -5 3 -7 15 -4
26 3 12 -1 28 -9 38 -8 9 -20 37 -27 62 -7 25 -15 53 -17 63 -3 9 -3 17 0 17
2 0 40 -19 83 -42z m626 20 c-5 -7 -10 -30 -10 -51 -1 -21 -8 -49 -17 -62
l-17 -25 -30 35 c-29 32 -72 47 -81 28 -5 -12 -83 -63 -96 -63 -31 0 -2 21
120 87 128 69 152 78 131 51z m-4219 -3 c11 -8 15 -15 10 -15 -6 0 -19 7 -30
15 -10 8 -14 14 -9 14 6 0 19 -6 29 -14z m3433 -91 c-2 -2 -23 3 -47 10 -48
14 -59 28 -39 52 11 13 17 10 50 -22 21 -21 37 -39 36 -40z m962 37 c9 -6 33
-92 27 -98 -1 -2 -29 22 -62 52 l-59 54 42 -1 c23 -1 47 -4 52 -7z m-1099 -11
c0 -13 -28 -25 -38 -16 -3 4 0 11 8 16 20 13 30 12 30 0z m470 -60 c-17 -11
-37 0 -70 35 l-25 27 54 -27 c39 -19 50 -29 41 -35z m549 -14 c28 -30 24 -32
-24 -12 -19 8 -35 12 -35 9 0 -3 -9 2 -20 12 -15 14 -17 22 -9 37 10 18 11 18
37 -1 15 -10 38 -31 51 -45z m212 -10 c41 -38 86 -78 102 -89 42 -32 32 -40
-13 -12 -22 14 -67 39 -100 56 -33 17 -60 33 -60 37 0 4 -4 24 -9 45 -5 21 -6
37 -1 35 4 -2 41 -34 81 -72z m-1336 54 c3 -5 -1 -10 -9 -10 -8 0 -18 5 -21
10 -3 6 1 10 9 10 8 0 18 -4 21 -10z m453 -68 c-38 -4 -44 2 -30 33 l12 26 24
-28 25 -28 -31 -3z m-551 -4 c36 -34 27 -40 -22 -16 -30 15 -41 25 -32 30 19
12 29 10 54 -14z m436 -18 c3 -3 12 -29 21 -58 l15 -53 -57 49 c-31 28 -67 61
-80 75 l-23 24 60 -16 c33 -9 62 -18 64 -21z m1215 -41 c67 -40 72 -45 72 -78
l0 -34 -82 78 c-121 116 -117 111 -88 93 14 -8 58 -35 98 -59z m-1475 42 c4
-4 0 -18 -10 -30 l-18 -22 -35 37 -35 37 45 -7 c25 -4 49 -11 53 -15z m127
-42 c72 -67 72 -67 -22 -19 -63 32 -81 54 -61 73 11 12 16 8 83 -54z m779 54
c0 -5 -4 -17 -9 -28 -8 -18 -9 -17 -9 8 -1 15 4 27 9 27 6 0 10 -3 9 -7z m-49
-38 l0 -36 -34 28 c-39 31 -38 43 5 43 27 0 29 -3 29 -35z m-1100 -68 l75 -80
-60 43 c-33 24 -62 47 -65 50 -3 4 -22 18 -42 32 -21 13 -35 28 -31 31 19 20
54 -2 123 -76z m798 -25 c-49 -4 -69 14 -63 56 2 15 4 31 4 37 1 5 24 -13 51
-40 l51 -50 -43 -3z m92 87 c46 -10 50 -13 50 -39 0 -16 -4 -31 -8 -34 -5 -3
-30 15 -56 40 -26 24 -45 44 -42 44 3 0 28 -5 56 -11z m410 -105 c0 -2 -31 11
-70 28 -68 30 -76 40 -64 72 5 12 20 3 70 -41 35 -31 64 -58 64 -59z m-600 69
l0 -37 -30 29 c-31 30 -27 45 13 45 13 0 17 -8 17 -37z m678 -4 c42 -14 46
-19 57 -62 7 -26 8 -46 4 -45 -22 8 -148 131 -143 139 3 6 12 5 21 -3 9 -7 36
-20 61 -29z m-339 -22 c28 -27 51 -52 51 -56 0 -4 -6 -16 -14 -26 -13 -18 -16
-17 -63 17 -47 35 -48 38 -45 78 2 22 8 40 12 38 5 -2 31 -25 59 -51z m-1247
33 c2 -6 39 -47 83 -92 81 -81 78 -94 -5 -18 -25 23 -64 56 -87 73 -24 16 -43
34 -43 39 0 12 48 10 52 -2z m2140 -6 c5 -3 12 -13 18 -24 9 -17 6 -17 -45 3
-30 12 -55 26 -55 31 0 8 66 0 82 -10z m-2242 -29 c-21 -22 -22 -26 -8 -42 30
-35 31 -47 1 -20 -29 27 -30 27 -48 7 -10 -11 -22 -20 -28 -20 -5 0 1 9 14 19
24 20 24 20 4 35 -19 14 -19 15 -1 22 11 4 21 2 27 -7 7 -11 13 -10 31 9 31
30 37 28 8 -3z m450 -7 c69 -33 85 -53 57 -76 -9 -8 -29 4 -77 48 -36 33 -61
59 -57 60 5 0 39 -15 77 -32z m488 -19 c17 -16 32 -34 32 -39 0 -14 -41 -33
-51 -23 -10 11 -29 93 -20 93 3 0 21 -14 39 -31z m1002 -136 c0 -5 4 -7 -83
38 -57 29 -69 39 -77 69 -6 19 -10 39 -10 43 0 5 38 -26 85 -69 47 -42 85 -79
85 -81z m-1265 47 l70 -72 -65 41 c-36 23 -80 49 -97 58 -35 18 -41 31 -21 51
16 16 32 4 113 -78z m-826 43 l24 -37 -29 19 c-39 25 -54 41 -47 49 14 13 29
4 52 -31z m1452 -13 c28 -22 54 -40 59 -40 26 0 14 -97 -17 -132 -8 -9 -12
-22 -8 -28 8 -13 -13 -79 -32 -102 -8 -9 -12 -21 -9 -27 8 -12 -13 -101 -24
-101 -4 0 -10 -19 -12 -43 -3 -23 -12 -58 -21 -77 -8 -19 -18 -50 -21 -68 -3
-19 -12 -48 -20 -65 -7 -18 -19 -58 -26 -90 -12 -62 -30 -68 -30 -10 0 20 -6
44 -14 52 -18 21 -66 188 -59 207 3 8 -2 26 -12 40 -20 32 -67 184 -61 200 3
7 -4 27 -14 46 -17 33 -65 188 -58 192 2 1 29 15 61 30 31 16 57 32 57 37 0
12 137 11 160 -1 14 -8 22 -6 32 5 7 8 14 14 16 15 1 0 25 -18 53 -40z m689
-5 c36 -21 71 -45 78 -53 13 -17 16 -52 4 -52 -4 0 -43 34 -87 76 -44 41 -75
74 -70 71 6 -2 39 -21 75 -42z m279 -83 c33 -29 28 -28 -59 16 -72 37 -75 40
-78 78 l-3 39 58 -56 c32 -31 69 -66 82 -77z m-730 31 c2 -2 2 -5 -1 -8 -4 -5
-96 30 -106 39 -2 2 0 16 4 31 l7 27 46 -44 c25 -24 48 -44 50 -45z m-730 32
c74 -36 82 -43 92 -78 5 -21 13 -46 16 -55 7 -18 -26 9 -142 116 -79 72 -78
72 34 17z m-992 -64 c16 13 17 12 4 -4 -12 -15 -11 -20 13 -40 14 -12 26 -27
26 -32 0 -5 -13 4 -30 20 -26 25 -31 26 -47 14 -16 -12 -17 -12 -6 1 9 12 5
21 -27 48 -21 17 -43 32 -49 32 -6 0 -11 4 -11 8 0 5 -10 14 -22 19 l-23 11
25 10 c22 8 30 3 77 -46 47 -50 54 -54 70 -41z m2507 74 c31 -14 63 -25 71
-25 15 0 29 -53 23 -87 -2 -17 -17 -8 -88 58 -47 43 -80 79 -74 79 6 0 37 -11
68 -25z m-2405 13 c-2 -2 -20 -16 -39 -33 l-35 -30 29 33 c17 17 34 32 40 32
5 0 7 -1 5 -2z m1739 -47 c56 -25 60 -32 37 -51 -12 -10 -23 -3 -62 35 -26 26
-43 45 -38 43 6 -2 34 -14 63 -27z m-1171 -93 c72 -54 147 -105 166 -113 26
-10 52 -40 106 -120 92 -136 96 -147 24 -77 -70 69 -262 246 -318 293 -57 48
-143 133 -125 123 8 -4 74 -52 147 -106z m-824 6 c111 -109 109 -109 -31 0
-69 54 -98 82 -90 88 7 4 16 8 19 8 3 0 49 -43 102 -96z m-1524 80 l32 -7 -6
-101 c-4 -55 -8 -132 -9 -171 l-1 -70 -32 -3 -33 -3 0 180 c0 100 4 181 9 181
5 0 23 -3 40 -6z m278 -44 c25 -28 50 -47 55 -43 6 3 8 1 4 -5 -3 -6 -2 -13 4
-17 5 -3 10 -11 10 -16 0 -8 -94 67 -154 122 -6 5 -1 9 13 9 15 0 39 -18 68
-50z m1781 -139 c57 -53 108 -95 113 -93 5 1 8 -2 7 -8 -2 -5 38 -48 87 -95
89 -86 101 -109 15 -30 -25 23 -129 120 -232 215 -104 95 -188 177 -188 183 0
10 22 -9 198 -172z m194 -6 c106 -94 220 -195 254 -226 34 -31 92 -76 128
-100 63 -42 77 -61 56 -74 -18 -11 -6 -21 -369 309 -108 98 -218 201 -246 229
-93 92 -16 32 177 -138z m-1912 -85 c59 -55 -2 -12 -141 100 -30 25 -74 56
-97 70 -31 19 -42 31 -42 51 0 14 3 29 6 32 4 4 57 -42 118 -102 61 -59 131
-127 156 -151z m150 188 c35 -39 55 -66 43 -60 -12 7 -23 15 -25 19 -1 5 -23
24 -48 43 -25 19 -54 43 -64 52 -19 18 -19 18 5 18 17 -1 43 -22 89 -72z m150
30 c13 -18 42 -53 65 -77 35 -40 30 -37 -45 24 -47 37 -89 72 -94 77 -6 4 3 8
20 8 23 0 36 -8 54 -32z m689 -1 c14 -17 51 -56 83 -84 57 -52 66 -73 14 -32
-23 18 -29 19 -44 7 -15 -12 -16 -11 -3 5 10 13 11 21 4 25 -39 25 -122 88
-123 94 0 5 17 12 40 17 3 0 16 -14 29 -32z m2353 -27 l63 -60 -75 41 c-41 23
-76 43 -78 44 -5 5 11 35 19 35 5 0 37 -27 71 -60z m-2834 -11 c90 -99 74 -93
-61 23 -31 26 -31 27 -9 28 16 0 39 -17 70 -51z m2471 -3 l43 -38 -33 7 c-48
11 -79 23 -79 32 1 22 14 54 19 46 3 -4 26 -25 50 -47z m-2287 -8 c27 -29 57
-62 66 -72 16 -19 16 -19 -3 -5 -39 27 -155 121 -155 125 0 2 10 4 22 4 13 0
40 -20 70 -52z m3028 -39 c47 -44 81 -78 75 -76 -35 16 -152 92 -162 105 -14
17 -18 52 -5 52 4 0 45 -37 92 -81z m-2832 19 c29 -29 61 -61 72 -70 19 -17
19 -18 -23 -64 -36 -40 -70 -103 -47 -89 4 3 13 -2 20 -10 16 -19 36 -19 44 0
3 9 14 15 23 13 12 -2 23 8 32 30 16 35 26 40 34 17 4 -8 -10 -32 -33 -57 -40
-44 -48 -62 -30 -73 6 -4 8 -11 5 -16 -3 -5 1 -6 9 -3 9 3 17 -2 21 -15 3 -12
10 -19 15 -16 5 3 11 -3 14 -12 3 -10 29 -34 57 -53 47 -32 49 -35 29 -44 -18
-8 -26 -4 -51 27 -17 20 -38 37 -47 37 -23 0 -114 79 -106 92 4 7 2 8 -4 4
-14 -9 -91 74 -92 98 0 11 26 44 57 74 l57 55 -40 34 c-21 19 -56 46 -76 60
-44 30 -46 33 -15 33 15 0 42 -19 75 -52z m2223 25 c53 -19 57 -24 34 -43 -13
-11 -21 -8 -48 16 -18 16 -36 32 -41 36 -16 13 3 9 55 -9z m395 -13 c48 -22
65 -35 70 -55 13 -50 -11 -44 -77 21 -37 35 -65 64 -62 64 3 0 33 -13 69 -30z
m449 -123 c4 -21 5 -40 3 -42 -1 -1 -46 38 -98 87 l-95 90 92 -48 c87 -46 92
-51 98 -87z m-1591 51 c48 -32 94 -58 102 -58 7 0 18 -18 24 -41 6 -22 14 -48
17 -57 6 -15 -77 57 -221 191 -49 46 -39 41 78 -35z m929 -22 c67 -65 62 -63
-65 17 -52 33 -54 37 -36 55 14 14 14 14 101 -72z m-3519 -16 c22 -22 73 -69
111 -106 76 -72 72 -73 -20 -9 -33 23 -81 54 -107 69 -38 22 -47 32 -44 49 3
12 5 25 5 30 2 14 14 7 55 -33z m2700 -211 c-69 -15 -68 -16 -158 116 -47 69
-86 128 -86 131 0 3 62 -50 137 -118 134 -121 136 -123 107 -129z m466 203
l25 -23 -40 7 c-50 8 -56 14 -48 42 6 24 10 23 63 -26z m118 16 c27 -8 31 -12
21 -24 -16 -19 -19 -18 -59 17 -22 20 -28 29 -15 24 11 -4 35 -11 53 -17z
m484 -82 c11 -15 10 -58 -1 -54 -4 2 -44 36 -87 77 l-79 75 80 -44 c44 -23 83
-48 87 -54z m168 -8 c54 -52 80 -82 60 -69 -169 104 -170 105 -170 133 0 16 3
28 8 28 4 -1 50 -42 102 -92z m-491 -1 c39 -38 71 -71 71 -73 0 -3 -40 23 -90
56 -88 59 -98 69 -83 84 13 13 32 1 102 -67z m751 -120 l0 -38 -100 92 c-55
52 -100 94 -100 95 0 1 45 -23 100 -54 98 -56 99 -57 100 -95z m-2367 62 c98
-76 110 -89 79 -89 -12 0 -53 34 -100 80 -43 44 -77 80 -75 80 2 0 45 -32 96
-71z m-157 -20 c40 -30 84 -63 99 -73 l27 -20 -23 -8 c-20 -8 -34 2 -106 76
-46 47 -83 89 -83 93 0 4 4 3 8 -3 4 -6 39 -35 78 -65z m1430 13 c-46 -4 -49
-2 -40 32 l6 25 36 -27 36 -27 -38 -3z m132 42 c7 -2 10 -8 7 -14 -10 -17 -41
-11 -61 11 -18 20 -18 20 11 14 17 -4 36 -9 43 -11z m112 -56 c30 -29 72 -67
93 -85 22 -18 36 -33 32 -33 -5 0 -162 105 -204 136 -6 5 8 34 16 34 4 0 33
-24 63 -52z m306 2 c42 -27 80 -50 84 -50 12 0 22 -52 13 -61 -4 -4 -48 30
-98 76 -49 46 -87 84 -83 85 4 0 42 -22 84 -50z m-3640 -17 c35 -31 62 -59 59
-61 -2 -3 -34 8 -70 23 -62 27 -65 30 -65 62 0 18 3 33 6 33 3 0 34 -26 70
-57z m1637 -115 c-13 -24 -55 2 -128 80 l-80 85 106 -79 c59 -43 104 -82 102
-86z m2357 -34 c0 -2 -23 13 -52 34 -28 20 -72 48 -97 62 -40 22 -46 30 -49
62 l-3 38 100 -96 c56 -53 101 -98 101 -100z m-2561 56 c61 -46 69 -55 52 -62
-16 -5 -37 10 -105 78 -89 88 -111 118 -52 68 18 -16 66 -54 105 -84z m-420
91 c8 -5 10 -14 6 -22 -6 -9 -3 -11 10 -5 11 4 22 2 27 -6 12 -19 10 -30 -4
-22 -7 4 10 -14 37 -41 28 -26 64 -54 80 -61 17 -7 26 -13 20 -14 -5 0 1 -9
15 -20 23 -17 23 -19 7 -26 -19 -7 -89 24 -82 37 3 3 -5 15 -17 25 -21 19 -21
19 -8 -6 13 -24 12 -24 -6 -8 -20 17 -64 15 -64 -3 0 -5 -5 -9 -11 -9 -5 0 -8
4 -4 9 3 5 1 12 -4 15 -5 4 -8 -1 -7 -10 1 -9 20 -32 42 -51 l39 -34 -65 5
c-61 6 -68 9 -111 54 -26 26 -45 50 -42 55 2 4 -3 7 -11 7 -36 0 -15 36 57 98
48 42 70 49 96 33z m2141 -56 c0 -14 -1 -25 -3 -25 -2 0 -14 11 -27 25 l-23
25 26 0 c22 0 27 -5 27 -25z m300 -213 c0 -4 -27 15 -40 28 -16 16 -123 91
-172 121 -57 34 -69 54 -47 76 9 9 43 -17 135 -104 68 -64 124 -119 124 -121z
m-392 186 l36 -31 -43 6 c-51 6 -52 7 -44 35 7 28 9 28 51 -10z m640 -98 c4 0
9 -16 10 -36 l3 -37 -88 80 c-132 121 -138 133 -30 59 54 -36 101 -66 105 -66z
m382 73 c19 -12 39 -23 45 -23 5 0 25 -13 43 -28 28 -23 33 -34 30 -60 l-3
-33 -105 101 c-97 95 -99 103 -10 43z m-3832 -21 c-21 -9 -54 9 -71 37 l-17
30 48 -32 c27 -18 44 -34 40 -35z m152 21 c33 -25 60 -48 60 -50 0 -1 -10 -3
-22 -3 -15 1 -39 19 -66 50 -24 28 -41 50 -38 50 3 0 33 -21 66 -47z m1729
-30 c43 -43 93 -92 112 -109 19 -17 48 -46 64 -65 l30 -34 -30 25 c-117 99
-265 241 -265 255 0 14 18 -1 89 -72z m-1516 -6 c52 -43 55 -47 32 -47 -15 0
-33 7 -41 15 -9 8 -12 15 -8 15 5 0 -10 19 -31 42 -44 47 -37 43 48 -25z
m2164 3 c7 -25 12 -48 10 -53 -1 -5 -29 17 -62 47 l-60 56 50 -3 c49 -2 49 -2
62 -47z m-1934 -55 c21 -15 36 -30 33 -32 -7 -8 -76 9 -71 17 3 5 -10 7 -30 6
-19 -2 -32 1 -29 6 3 5 14 6 25 3 28 -9 24 17 -6 45 -14 13 -25 28 -25 34 0 5
15 -4 33 -21 17 -16 49 -42 70 -58z m3040 -17 c113 -102 128 -118 108 -118 -6
0 -11 4 -11 9 0 5 -44 40 -97 77 -54 37 -104 74 -110 82 -13 16 -18 52 -8 52
3 0 56 -46 118 -102z m-1479 63 c-2 -3 -12 3 -22 13 -16 17 -16 18 5 5 12 -7
20 -15 17 -18z m273 -37 c26 -25 43 -44 38 -42 -97 29 -133 56 -108 81 12 12
21 7 70 -39z m-580 -21 c27 -27 82 -77 122 -113 183 -163 199 -186 49 -68 -49
38 -116 87 -150 109 -35 22 -66 50 -70 62 -7 25 -10 57 -5 57 2 0 26 -21 54
-47z m573 -182 c41 -39 72 -71 68 -71 -4 0 -54 42 -110 94 -159 145 -208 192
-208 200 0 8 66 -51 250 -223z m502 185 c12 -18 9 -56 -4 -56 -12 0 -98 74
-98 83 0 9 95 -16 102 -27z m-151 -12 l34 -36 -45 7 c-25 4 -46 8 -48 10 -5 5
10 55 17 55 4 0 23 -16 42 -36z m572 -59 c82 -55 106 -83 95 -114 -1 -6 -25
11 -53 36 -149 137 -175 163 -175 169 0 4 10 -2 23 -13 12 -11 61 -47 110 -78z
m-1134 -85 c15 -14 87 -81 160 -150 164 -154 161 -150 161 -156 0 -10 -44 26
-128 103 -251 230 -461 440 -293 293 41 -36 86 -76 100 -90z m1566 124 c6 -1
16 -2 23 -3 7 0 11 -5 8 -10 -6 -10 68 -68 120 -94 24 -12 33 -25 37 -54 4
-20 5 -38 4 -39 -1 -2 -34 27 -72 62 -39 36 -82 73 -96 82 -14 9 -39 32 -55
51 -27 33 -28 34 -4 20 14 -8 30 -15 35 -15z m-719 -66 c39 -38 87 -80 107
-96 20 -15 36 -31 37 -35 0 -9 -26 9 -125 83 -33 25 -70 52 -82 60 -25 17 -46
79 -22 64 8 -4 46 -39 85 -76z m527 -35 c45 -43 104 -97 130 -121 68 -61 58
-61 -20 0 -38 29 -98 73 -135 98 -56 37 -68 50 -68 73 0 15 3 27 6 27 3 0 42
-35 87 -77z m-1064 23 c58 -21 66 -27 78 -61 7 -21 11 -40 9 -42 -11 -11 -59
13 -74 36 -9 14 -33 41 -52 58 -19 18 -33 33 -30 33 3 0 34 -11 69 -24z m194
-14 c20 -22 13 -32 -21 -32 -18 0 -23 4 -18 16 3 9 6 20 6 25 0 15 16 10 33
-9z m117 2 c0 -2 -9 -4 -20 -4 -11 0 -20 4 -20 9 0 5 9 7 20 4 11 -3 20 -7 20
-9z m176 -104 c55 -52 87 -85 73 -75 -169 126 -208 159 -197 167 7 4 16 7 19
5 4 -1 51 -45 105 -97z m196 87 c28 -27 216 -157 227 -157 6 0 11 -4 11 -9 0
-5 3 -24 7 -42 6 -34 6 -34 -73 38 -144 130 -199 182 -192 183 4 0 13 -6 20
-13z m-1187 -189 c39 -34 72 -66 74 -71 3 -9 -125 77 -139 93 -3 3 -33 23 -67
45 -57 36 -63 43 -63 74 l0 34 63 -57 c34 -31 94 -84 132 -118z m1858 46 c41
-27 82 -54 91 -59 13 -7 17 -20 14 -45 l-3 -35 -91 85 c-50 47 -110 100 -133
119 -22 19 -41 41 -41 49 0 8 19 -3 45 -26 24 -21 78 -61 118 -88z m-973 -10
l95 -96 -112 87 c-62 48 -113 91 -113 96 0 28 46 -3 130 -87z m707 -39 c69
-63 130 -112 136 -108 6 3 7 1 3 -5 -9 -15 6 -16 20 -2 7 7 11 6 11 -4 0 -28
-46 -8 -141 63 -54 40 -108 77 -121 83 -13 6 -25 20 -28 32 -2 11 -8 29 -12
39 -4 9 -4 17 0 17 3 0 63 -52 132 -115z m-790 -56 c66 -64 112 -114 101 -111
-10 2 -18 8 -18 12 0 10 -152 137 -195 164 -46 29 -61 60 -26 54 11 -2 73 -55
138 -119z m549 -45 c61 -41 83 -63 87 -82 11 -59 11 -59 -208 152 l-60 58 50
-37 c28 -20 87 -61 131 -91z m-1281 -142 c-2 -2 -39 23 -82 55 -43 33 -104 77
-135 98 -32 21 -58 41 -58 44 0 3 3 16 6 28 5 20 20 9 139 -100 73 -67 132
-124 130 -125z m50 228 c3 -5 50 -43 105 -84 83 -62 96 -76 84 -87 -12 -10
-29 1 -97 66 -45 44 -91 87 -102 97 -11 10 -14 18 -8 18 7 0 14 -4 18 -10z
m1725 -104 c41 -30 86 -61 100 -68 33 -17 40 -27 40 -60 0 -36 -5 -35 -44 5
-45 45 -140 131 -186 168 -22 18 -40 39 -40 48 0 10 8 7 28 -11 15 -15 61 -51
102 -82z m-1249 29 c13 -5 19 -16 19 -37 l0 -30 -37 40 c-81 85 -82 87 -40 59
21 -15 47 -29 58 -32z m109 -21 c22 -20 39 -39 36 -41 -2 -3 -25 -1 -50 2 -44
7 -46 9 -46 41 0 19 4 34 10 34 5 0 28 -16 50 -36z m1060 -222 c8 -9 -14 6
-50 31 -36 26 -96 68 -135 93 -84 56 -95 69 -95 107 0 27 8 21 133 -94 72 -67
139 -129 147 -137z m-1247 119 c38 -28 75 -51 83 -51 15 0 20 -55 5 -64 -4 -3
-33 16 -62 43 -45 41 -55 46 -61 33 -5 -12 -7 -9 -7 11 -1 38 -50 87 -88 87
-26 1 -27 2 -9 15 11 8 15 19 10 27 -4 7 8 -1 27 -18 19 -17 65 -54 102 -83z
m-396 34 c32 -22 75 -52 95 -68 22 -17 43 -25 50 -21 7 4 10 3 6 -1 -5 -5 15
-22 43 -38 56 -31 96 -32 130 -1 22 20 33 14 108 -59 l58 -57 1 -105 c0 -58
-3 -105 -6 -105 -4 0 -32 25 -62 55 -46 47 -56 53 -62 38 -5 -14 -7 -11 -7 10
-1 36 -50 87 -84 87 -16 0 -46 22 -93 68 -38 37 -116 112 -174 166 -106 100
-107 102 -3 31z m1169 -50 c45 -35 98 -74 118 -86 30 -17 36 -27 36 -55 l0
-34 -97 93 c-233 222 -231 220 -57 82z m-1286 -123 c36 -33 76 -70 90 -82 38
-32 2 -12 -58 34 -30 23 -79 60 -110 83 -31 23 -62 46 -67 51 -6 5 -23 17 -38
26 -21 14 -27 26 -27 54 l0 36 73 -70 c39 -39 101 -99 137 -132z m420 148 c11
-11 20 -29 20 -40 0 -46 -72 -79 -100 -45 -7 8 -10 15 -6 15 3 0 1 11 -4 25
-16 41 0 60 53 64 9 0 26 -8 37 -19z m495 -2 c54 -24 35 -108 -25 -108 -60 0
-79 54 -32 95 32 29 26 28 57 13z m-115 -56 c0 -69 89 -108 149 -66 23 16 25
15 100 -58 42 -41 140 -132 217 -201 180 -161 196 -185 192 -277 l-3 -69 -85
82 c-133 128 -126 124 -152 101 -23 -19 -23 -19 -5 2 9 11 17 23 17 26 0 3
-57 57 -127 119 -69 63 -133 121 -142 130 -9 8 -73 68 -143 133 -71 65 -128
121 -128 125 0 4 25 2 55 -3 54 -10 55 -11 55 -44z m1007 -8 c48 -36 109 -80
135 -97 42 -27 48 -35 48 -65 l0 -35 -77 74 c-43 41 -106 100 -141 132 -34 31
-61 57 -58 57 2 0 44 -30 93 -66z m-817 12 c0 -26 -6 -18 -14 19 -5 22 -4 26
4 15 5 -8 10 -24 10 -34z m305 -150 c50 -40 105 -81 123 -92 24 -14 32 -25 32
-46 0 -15 -2 -28 -4 -28 -2 0 -50 44 -107 99 -57 54 -141 131 -186 171 -46 40
-83 75 -83 77 0 3 30 -21 68 -52 37 -31 108 -89 157 -129z m-440 -54 c-2 -2
-46 31 -100 72 -53 42 -100 76 -106 76 -5 0 -9 14 -9 31 0 30 3 29 109 -72 59
-57 107 -105 106 -107z m800 51 c130 -126 139 -138 55 -71 -25 20 -80 59 -122
87 -68 45 -78 56 -78 82 0 16 3 29 8 29 4 -1 66 -57 137 -127z m-1541 57 c44
-34 104 -78 132 -98 42 -31 49 -41 44 -61 -5 -22 -15 -15 -138 97 -73 67 -130
122 -126 122 4 0 43 -27 88 -60z m-227 -60 c49 -47 107 -102 131 -123 41 -36
46 -52 7 -22 -52 40 -184 133 -212 150 -27 16 -33 26 -33 53 0 19 4 32 10 30
5 -1 49 -41 97 -88z m1590 53 c-3 -10 -5 -4 -5 12 0 17 2 24 5 18 2 -7 2 -21
0 -30z m456 -176 c71 -47 77 -55 77 -85 l0 -34 -101 93 c-201 186 -193 177
-119 125 36 -26 100 -70 143 -99z m-1235 83 c46 -42 42 -48 -27 -34 -27 6 -31
10 -31 40 0 19 3 34 8 34 4 0 27 -18 50 -40z m217 0 c3 -5 -3 -10 -15 -10 -12
0 -18 5 -15 10 3 6 10 10 15 10 5 0 12 -4 15 -10z m-498 -42 c27 -25 29 -45 7
-76 -18 -26 -65 -30 -88 -6 -23 23 -21 71 4 79 11 3 20 11 20 16 0 17 33 9 57
-13z m1308 -154 c85 -81 81 -81 -42 7 -43 31 -93 63 -110 73 -18 9 -33 24 -33
34 0 9 -3 28 -7 42 -6 22 2 18 53 -27 32 -29 95 -87 139 -129z m-1700 -69 c55
-52 34 -40 -81 45 -34 25 -84 61 -112 80 -44 30 -51 40 -52 69 l0 33 98 -90
c53 -49 120 -111 147 -137z m905 205 c20 -20 27 -50 12 -50 -4 0 -23 16 -42
35 -31 32 -32 35 -12 35 12 0 31 -9 42 -20z m58 -36 c-3 -14 -5 -12 -10 9 -3
19 -2 25 4 19 6 -6 8 -18 6 -28z m-821 -27 c28 -24 73 -60 102 -81 28 -21 51
-42 51 -46 0 -23 -24 -19 -48 6 -15 16 -59 59 -99 97 -80 75 -84 90 -6 24z
m718 3 c32 -33 29 -46 -9 -36 -27 7 -51 40 -41 56 10 16 19 12 50 -20z m-93 4
c58 -72 97 -90 137 -65 15 10 18 8 155 -113 66 -59 66 -59 89 -40 22 19 22 19
4 -2 -17 -21 -16 -22 26 -60 72 -65 119 -104 178 -150 79 -61 91 -81 87 -159
l-3 -65 -44 43 c-146 139 -328 296 -338 292 -7 -2 -10 2 -7 8 2 7 -14 30 -36
52 -22 21 -40 35 -40 30 0 -6 -9 9 -19 32 -21 46 -45 63 -88 63 -21 0 -48 19
-108 75 l-80 74 37 1 c23 0 42 -6 50 -16z m-45 -110 c-1 -1 -26 3 -54 9 l-53
11 0 41 0 41 55 -50 c30 -27 53 -51 52 -52z m-208 29 l71 -66 0 -61 c0 -90 -8
-95 -68 -37 -39 38 -52 45 -55 32 -3 -11 -5 -9 -6 6 -1 31 -47 81 -84 93 -28
9 -28 9 -5 6 26 -3 26 -2 13 18 -19 26 -19 36 -2 36 8 0 22 9 32 20 10 11 21
20 25 20 4 0 40 -30 79 -67z m1457 -105 c14 -7 24 -23 28 -46 3 -20 4 -37 2
-39 -1 -2 -23 16 -47 39 -72 70 -199 183 -210 186 -5 2 -9 8 -9 12 0 5 48 -25
108 -67 59 -41 117 -80 128 -85z m-1886 62 c41 -30 97 -69 123 -85 27 -17 64
-43 83 -58 44 -37 94 -40 128 -8 l25 23 49 -46 c27 -26 58 -53 68 -61 16 -11
19 -28 20 -104 l2 -91 -36 29 c-21 16 -45 38 -55 49 -11 11 -25 18 -33 15 -9
-3 -14 2 -14 17 0 12 -13 35 -30 51 -26 27 -35 30 -75 26 -25 -3 -43 -1 -40 3
4 6 -199 205 -295 290 -40 35 -1 11 80 -50z m-75 -224 c44 -44 62 -64 40 -44
-79 71 -201 169 -252 204 -45 30 -53 40 -53 66 0 31 1 30 93 -58 50 -49 128
-125 172 -168z m1665 117 c36 -33 83 -77 105 -97 l40 -38 -62 44 c-99 68 -179
122 -197 133 -9 6 -19 28 -23 50 l-6 40 39 -36 c22 -20 68 -63 104 -96z
m-1272 64 c17 -13 15 -72 -3 -87 -18 -15 -60 -16 -77 -2 -7 6 -13 27 -13 48 0
30 5 41 24 50 24 12 45 9 69 -9z m514 -28 c15 -20 17 -30 9 -51 -25 -65 -126
-37 -112 31 4 22 44 51 65 48 10 -1 28 -13 38 -28z m-163 12 c18 -5 24 -14 26
-40 l3 -33 -37 34 c-20 18 -40 36 -45 40 -12 9 19 9 53 -1z m-804 -11 c4 -6
21 -21 39 -33 18 -12 78 -56 132 -97 55 -41 109 -82 121 -90 12 -9 23 -31 26
-53 l6 -38 -32 27 c-32 27 -139 124 -257 233 -36 34 -60 61 -53 61 6 0 15 -5
18 -10z m784 -97 c29 -28 23 -29 -37 -4 -26 11 -55 22 -64 25 -13 4 -18 16
-18 47 l0 42 48 -44 c26 -23 58 -53 71 -66z m1214 -60 c61 -42 67 -49 67 -81
l0 -35 -77 74 c-43 41 -107 101 -143 133 l-65 59 75 -53 c41 -28 105 -72 143
-97z m-2071 -38 c62 -61 145 -139 183 -175 85 -78 49 -51 -122 94 -70 59 -145
119 -165 132 -28 18 -35 28 -31 44 3 11 9 20 14 18 4 -2 59 -53 121 -113z
m1113 75 c15 -16 33 -27 38 -23 6 3 7 1 4 -4 -4 -6 77 -87 179 -179 225 -206
244 -231 244 -328 l0 -70 -37 35 c-21 19 -87 80 -148 134 -60 55 -151 139
-202 188 -50 49 -96 86 -102 82 -7 -4 -11 3 -11 17 0 13 -11 37 -25 53 -78 94
-78 95 -58 95 10 0 29 7 43 14 36 20 43 19 75 -14z m835 -228 c16 -15 -34 16
-174 111 -81 54 -86 60 -86 93 l0 36 123 -113 c67 -62 129 -119 137 -127z
m-1114 100 c-2 -1 -24 1 -49 4 -43 6 -47 9 -47 34 0 15 3 29 6 33 6 6 95 -65
90 -71z m179 68 c3 -6 -4 -10 -17 -10 -18 0 -20 2 -8 10 19 12 18 12 25 0z
m-95 -44 c-7 -7 -19 -1 -38 18 l-27 27 38 -17 c25 -12 34 -21 27 -28z m-405 8
c29 -19 34 -64 9 -88 -32 -33 -104 -8 -104 36 0 19 45 68 62 68 5 0 20 -7 33
-16z m517 -21 c40 -36 9 -103 -48 -103 -29 0 -41 18 -42 62 -2 54 49 78 90 41z
m936 -26 c31 -24 84 -61 117 -83 71 -46 75 -50 75 -87 0 -30 5 -34 -250 200
-33 30 5 10 58 -30z m-1704 -4 c8 -19 2 -16 -25 13 -23 25 -23 26 -2 13 13 -7
25 -19 27 -26z m-337 -31 c32 -32 114 -110 183 -173 143 -132 215 -201 186
-178 -32 25 -95 79 -156 135 -89 81 -182 157 -233 189 -37 24 -47 36 -47 58 0
15 2 27 5 27 2 0 30 -26 62 -58z m1006 -46 c41 -31 75 -33 110 -6 l25 20 78
-73 c43 -39 112 -103 154 -141 163 -150 263 -252 276 -282 10 -24 19 -196 15
-279 -1 -18 -111 99 -111 118 0 10 -30 51 -67 89 -64 66 -428 404 -494 457
-30 24 -30 24 -50 5 -20 -20 -19 -21 91 -119 60 -54 110 -100 110 -102 0 -8
-13 0 -47 30 -65 57 -197 163 -228 182 -41 25 -55 44 -55 74 0 24 4 22 53 -27
l53 -53 19 21 c18 20 18 21 -28 68 -26 27 -45 51 -42 54 12 12 107 -13 138
-36z m-274 -50 c43 -43 44 -47 49 -121 l5 -76 -38 -39 -37 -38 36 -24 c27 -17
36 -30 36 -50 0 -38 -12 -35 -54 14 l-37 42 -40 -40 -40 -41 38 -29 c21 -15
47 -36 57 -46 11 -10 32 -24 48 -30 21 -10 28 -20 28 -40 0 -16 -3 -28 -7 -28
-4 0 -45 37 -90 82 l-83 82 -37 -34 c-32 -30 -34 -30 -12 -5 15 17 25 38 24
48 -2 10 -25 37 -52 60 -59 51 -159 150 -118 116 16 -13 34 -29 40 -35 5 -6
35 -30 65 -55 30 -24 63 -52 73 -63 19 -18 20 -17 59 21 l40 40 -64 60 c-35
33 -88 82 -118 108 -30 27 -77 71 -105 98 l-50 51 55 -47 c30 -26 108 -92 172
-147 65 -55 121 -100 126 -100 11 0 62 53 62 65 0 4 -19 26 -42 47 -24 22 -80
75 -124 119 l-82 79 38 0 c22 0 47 8 61 19 23 18 24 18 49 1 14 -10 45 -39 69
-64z m1211 -57 c102 -99 103 -100 40 -55 -36 25 -93 62 -127 83 -47 28 -63 43
-63 59 0 12 -3 30 -7 40 -10 27 34 -8 157 -127z m-1835 -71 c99 -100 149 -153
110 -118 -78 73 -302 300 -294 300 2 0 85 -82 184 -182z m90 -121 c12 -13 5
-10 -17 6 -20 15 -41 27 -47 27 -6 0 -11 3 -11 8 0 4 -17 18 -38 32 -20 13
-51 36 -68 50 -17 14 -45 33 -63 42 -29 16 -42 53 -25 71 5 5 198 -164 269
-236z m2012 86 c25 -13 32 -23 35 -53 l3 -38 -25 19 c-14 10 -72 64 -130 120
l-105 101 95 -67 c52 -36 109 -73 127 -82z m-1337 52 l-33 -34 69 -64 c119
-109 150 -139 134 -130 -31 16 -225 148 -231 156 -11 14 3 58 16 53 7 -2 25 9
41 25 15 16 30 29 33 29 3 0 -10 -16 -29 -35z m1154 -198 c50 -47 48 -46 -60
25 -61 40 -118 78 -126 83 -9 6 -19 28 -23 49 l-7 40 82 -75 c46 -41 106 -96
134 -122z m-2041 91 c30 -29 73 -69 95 -88 67 -56 57 -63 -20 -14 -39 25 -86
53 -104 62 -30 14 -34 20 -34 54 0 21 2 38 5 38 2 0 28 -24 58 -52z m2146 -72
c60 -40 114 -75 120 -77 8 -3 11 -19 9 -42 l-3 -37 -70 69 c-38 37 -94 89
-123 114 -29 26 -50 47 -47 47 3 0 54 -33 114 -74z m-1249 -61 l55 -55 -63 21
c-56 19 -62 24 -62 48 0 22 7 41 15 41 0 0 25 -25 55 -55z m1040 -30 c30 -29
71 -67 90 -84 33 -29 30 -28 -55 15 -101 53 -115 65 -115 107 0 34 6 32 80
-38z m-1584 23 l29 -33 -32 29 c-31 28 -38 36 -30 36 2 0 16 -15 33 -32z
m-338 -43 c40 -36 69 -65 64 -65 -5 0 -42 14 -81 32 -67 31 -71 34 -71 65 0
18 3 33 8 33 4 0 40 -29 80 -65z m330 -30 c43 -32 49 -41 36 -48 -13 -7 -33 7
-93 68 -76 78 -75 78 57 -20z m92 -10 c19 -19 32 -35 29 -35 -3 0 -20 16 -39
35 -19 19 -32 35 -29 35 3 0 20 -16 39 -35z m1803 -90 c53 -31 58 -41 21 -48
-21 -4 -39 9 -112 81 l-87 85 65 -45 c36 -25 86 -57 113 -73z m-1992 33 c13
-4 4 -28 -11 -28 -9 0 -100 84 -100 93 0 3 22 -9 50 -28 27 -18 55 -35 61 -37z
m863 47 c16 -12 17 -15 4 -15 -8 0 -21 7 -28 15 -16 19 -1 19 24 0z m-141 -21
l58 -18 -6 -36 c-4 -19 -9 -37 -11 -40 -3 -2 -33 24 -67 59 -34 35 -55 61 -47
59 8 -3 41 -14 73 -24z m393 -45 c13 -22 -39 8 -67 39 l-34 35 48 -34 c27 -18
51 -37 53 -40z m-355 -134 c79 -76 113 -112 74 -79 -107 92 -166 138 -212 169
-31 20 -43 34 -43 52 0 22 2 23 18 11 11 -7 84 -76 163 -153z m-1022 111 l24
-26 -41 0 c-41 0 -42 1 -42 35 0 31 2 34 18 26 9 -5 28 -21 41 -35z m564 -10
c8 -19 -54 -18 -74 0 -18 16 -18 19 -3 35 16 17 17 17 45 -3 15 -12 30 -26 32
-32z m1393 -6 l48 -45 -44 -5 c-25 -3 -48 -3 -51 0 -10 8 -18 101 -9 98 5 -2
30 -23 56 -48z m-1847 16 c17 -9 20 -15 11 -21 -7 -4 -21 1 -33 14 -24 24 -14
27 22 7z m982 -12 c12 -14 11 -16 -5 -13 -11 2 -21 10 -24 17 -5 17 13 15 29
-4z m1000 -24 c23 -18 23 -19 4 -20 -11 0 -26 9 -33 20 -16 26 -1 26 29 0z
m-1460 -31 c22 -17 37 -34 35 -38 -6 -9 103 -116 127 -124 12 -5 17 -17 17
-48 0 -48 4 -50 -95 40 -81 73 -85 84 -17 50 l57 -30 -65 66 c-36 37 -78 73
-93 81 -15 8 -25 19 -22 24 9 15 13 13 56 -21z m486 1 c34 -9 55 -20 58 -32 6
-17 141 -147 385 -370 114 -104 155 -154 148 -182 -2 -10 -30 11 -84 62 -44
42 -179 167 -300 278 -297 272 -291 266 -274 261 8 -2 39 -10 67 -17z m371
-26 c17 -7 32 -20 32 -28 0 -21 -63 0 -92 32 l-23 24 25 -7 c14 -4 40 -13 58
-21z m-1338 -9 c27 -29 26 -32 -14 -37 -24 -2 -30 1 -37 24 -12 45 14 52 51
13z m375 -34 c24 -25 42 -48 40 -50 -2 -2 -34 18 -71 44 -45 33 -62 50 -53 55
19 12 36 2 84 -49z m1745 46 c0 -9 -17 -14 -52 -16 -29 -1 -96 -6 -148 -11
-127 -13 -130 -12 -130 6 0 13 11 15 58 13 31 -1 64 1 72 4 8 4 49 8 90 10 41
2 83 4 93 5 9 1 17 -4 17 -11z m-2200 -34 c6 -21 13 -43 15 -50 3 -9 18 -8 59
4 l55 15 25 -28 24 -29 31 29 c22 21 28 33 21 42 -8 8 -6 13 6 18 26 10 44 7
44 -8 0 -8 33 -44 73 -81 82 -76 74 -75 -31 3 l-73 55 -30 -29 c-16 -15 -29
-31 -29 -34 0 -10 138 -143 295 -283 183 -163 224 -206 207 -216 -7 -4 -43 -3
-80 1 -59 8 -70 14 -95 43 -15 18 -105 105 -200 192 -94 87 -178 164 -185 170
-17 17 -27 16 -41 -1 -17 -20 -6 -35 59 -91 33 -27 57 -51 55 -53 -5 -5 -118
87 -123 100 -7 16 -29 7 -62 -27 l-33 -34 62 -57 c34 -31 59 -59 57 -61 -2 -3
-34 19 -71 48 l-66 52 -35 -34 -34 -33 67 -63 c38 -34 65 -63 62 -63 -4 0 -38
18 -75 40 -38 22 -77 40 -86 40 -14 0 -18 8 -18 40 0 44 5 48 30 25 15 -13 20
-11 48 18 l32 33 -54 34 c-45 29 -54 40 -54 62 1 16 6 28 12 28 6 0 34 -23 63
-52 l53 -52 35 34 c19 19 34 37 33 41 -3 9 -61 54 -135 105 -44 31 -53 42 -53
67 l0 29 43 -37 c23 -21 67 -62 97 -92 59 -57 70 -62 91 -37 12 14 0 28 -91
115 l-105 98 47 1 c45 0 47 -1 58 -37z m740 -13 c0 -17 -15 -11 -28 11 -12 19
-11 19 8 9 11 -6 20 -15 20 -20z m129 -63 c47 -45 120 -114 161 -152 82 -75
40 -47 -101 68 -46 38 -100 79 -121 90 -29 17 -38 28 -38 50 0 15 3 27 7 27 4
0 45 -37 92 -83z m636 53 c3 -5 -1 -10 -9 -10 -9 0 -16 5 -16 10 0 6 4 10 9
10 6 0 13 -4 16 -10z m685 -6 c0 -10 7 -25 15 -34 21 -24 32 -94 51 -348 12
-164 14 -226 5 -235 -6 -6 -14 -7 -18 -4 -4 4 -12 74 -17 155 -11 143 -12 147
-35 150 -23 4 -23 2 -17 -55 14 -137 26 -335 21 -344 -12 -18 -45 -9 -49 14
-6 31 -26 295 -26 339 0 42 -10 53 -33 35 -13 -10 -14 -26 -6 -107 28 -311 29
-320 7 -334 -37 -23 -47 8 -58 189 -17 266 -16 262 -45 252 -19 -8 -19 -74 -1
-247 15 -131 10 -158 -26 -145 -13 5 -18 28 -23 103 -21 313 -27 348 -59 336
-7 -3 -23 -31 -36 -62 -13 -31 -27 -63 -33 -69 -13 -18 -36 -16 -43 2 -5 13
33 120 86 240 10 22 21 50 24 61 4 12 18 34 32 49 14 15 23 33 20 41 -5 13 38
21 144 27 25 1 62 3 83 5 29 2 37 -1 37 -14z m-835 -24 c3 -6 -1 -7 -9 -4 -18
7 -21 14 -7 14 6 0 13 -4 16 -10z m258 -87 c12 -4 17 -16 17 -45 0 -34 -2 -37
-17 -28 -10 5 -43 35 -73 65 l-55 56 55 -22 c30 -12 63 -24 73 -26z m-968 -95
c38 -26 75 -48 82 -48 9 0 13 -14 13 -41 0 -37 -1 -39 -19 -27 -10 7 -65 58
-122 112 -108 104 -100 104 46 4z m245 -28 c58 -54 116 -107 130 -119 14 -11
21 -20 17 -21 -4 0 -17 9 -29 20 -24 22 -43 27 -32 8 4 -7 -19 12 -52 43 -32
30 -80 68 -105 83 -36 20 -48 34 -51 56 -5 30 0 45 11 34 3 -3 53 -50 111
-104z m677 -23 c46 -30 64 -48 68 -69 4 -16 4 -32 1 -35 -5 -5 -246 214 -246
224 0 2 26 -15 58 -38 31 -23 85 -60 119 -82z m-980 -74 c68 -50 130 -96 139
-101 10 -6 14 -19 12 -41 l-3 -33 -110 104 c-235 222 -232 217 -38 71z m368
-126 c19 -16 -28 6 -84 40 -31 19 -66 36 -78 39 -19 5 -23 13 -23 46 l0 40 88
-78 c48 -43 92 -82 97 -87z m71 61 l29 -33 -32 29 c-31 28 -38 36 -30 36 2 0
16 -15 33 -32z m297 -133 c20 -16 37 -33 37 -37 0 -10 -44 4 -52 16 -4 6 -33
37 -65 70 l-58 59 50 -39 c28 -22 67 -52 88 -69z m-1005 58 c74 -60 76 -62 97
-77 20 -15 19 -15 -5 -16 -18 0 -44 19 -90 65 -72 72 -73 85 -2 28z m778 5
l29 -33 -32 29 c-31 28 -38 36 -30 36 2 0 16 -15 33 -32z m434 -102 c-11 -12
-27 1 -95 73 l-60 65 81 -65 c45 -35 78 -68 74 -73z m-691 50 c29 -29 31 -36
18 -41 -10 -3 -24 -7 -33 -10 -33 -10 -54 13 -54 61 0 40 2 44 18 35 9 -5 32
-25 51 -45z m267 17 c17 -12 33 -21 36 -18 2 3 17 -8 32 -24 l27 -28 -25 0
c-17 0 -41 17 -77 55 -53 55 -51 59 7 15z m-1178 -36 c26 -28 21 -35 -23 -32
-16 1 -38 3 -47 4 -19 1 -23 27 -12 68 6 23 6 23 33 4 14 -11 36 -30 49 -44z
m262 23 c29 -22 58 -40 62 -40 5 0 7 -4 3 -10 -9 -15 -46 4 -93 49 -55 52 -41
53 28 1z m-132 -45 c-8 -8 -47 8 -52 21 -4 12 0 11 25 -2 17 -8 29 -17 27 -19z
m925 11 c10 -8 14 -17 9 -20 -5 -3 -17 3 -27 14 -21 23 -9 26 18 6z m-913
-151 c47 -49 69 -76 50 -59 -19 17 -71 59 -114 93 -69 54 -75 62 -50 59 22 -2
51 -26 114 -93z m136 38 l49 -58 -67 55 c-38 29 -68 55 -68 57 0 2 8 3 18 3
10 0 40 -26 68 -57z m164 14 l35 -41 -35 24 c-19 13 -46 32 -59 42 l-24 18 24
-1 c15 0 37 -16 59 -42z m154 28 c5 -13 2 -14 -17 -4 -32 17 -33 19 -10 19 12
0 23 -7 27 -15z m345 -20 c13 -19 41 -51 62 -70 56 -50 36 -43 -25 9 -28 24
-69 55 -90 70 l-39 26 34 0 c28 0 39 -7 58 -35z m201 -27 l55 -63 -72 59 c-40
32 -73 60 -73 62 0 2 8 4 18 4 9 0 42 -28 72 -62z m170 9 l45 -51 -65 49 c-36
27 -67 50 -69 52 -2 2 7 3 20 2 16 -1 40 -19 69 -52z m146 32 c19 -22 19 -22
-1 -11 -11 6 -27 16 -35 22 -13 8 -13 10 1 10 9 0 24 -10 35 -21z m-678 -14
c2 -2 2 -19 0 -40 l-3 -36 -45 46 -45 47 45 -7 c25 -4 46 -9 48 -10z m860 0
c2 -2 2 -19 0 -40 l-3 -36 -45 46 -45 46 45 -7 c25 -4 46 -8 48 -9z m-1318
-402 c0 -2 -41 32 -91 74 -128 110 -221 182 -241 189 -12 3 -18 16 -18 35 0
28 11 19 175 -132 96 -89 175 -164 175 -166z m376 280 c79 -45 83 -50 84 -82
l0 -34 -27 24 c-62 54 -151 139 -146 139 3 0 43 -21 89 -47z m399 -206 c22
-22 -9 1 -68 52 -60 50 -128 103 -153 117 -37 22 -44 31 -44 57 0 29 4 26 113
-78 61 -60 130 -126 152 -148z m424 224 c24 -16 61 -37 82 -47 35 -15 39 -21
39 -52 l0 -35 -27 24 c-68 59 -151 139 -145 139 4 0 27 -13 51 -29z m-434 -41
c10 -11 16 -20 13 -20 -3 0 -13 9 -23 20 -10 11 -16 20 -13 20 3 0 13 -9 23
-20z m-445 -103 c36 -27 80 -56 98 -65 27 -13 32 -21 32 -50 l0 -35 -53 49
c-28 27 -88 83 -132 123 -80 75 -68 70 55 -22z m865 -7 c38 -29 84 -59 102
-68 28 -13 33 -21 33 -50 l0 -34 -107 98 c-60 54 -121 111 -138 127 l-30 30
35 -25 c19 -14 66 -49 105 -78z m-820 -196 c22 -17 50 -36 63 -43 15 -8 22
-21 22 -42 0 -30 -5 -26 -127 88 -217 203 -221 207 -108 116 61 -48 129 -102
150 -119z m-562 63 c223 -210 226 -213 157 -155 -180 151 -219 182 -262 211
-35 22 -48 37 -48 54 0 13 3 23 6 23 3 0 69 -60 147 -133z m937 -78 c52 -50
73 -73 45 -50 -164 136 -196 161 -234 186 -30 20 -41 34 -41 52 0 23 5 20 68
-36 37 -33 110 -102 162 -152z m355 115 c72 -60 192 -151 206 -156 11 -4 20
-58 11 -58 -3 0 -42 35 -86 78 -45 43 -115 109 -156 147 -80 74 -73 70 25 -11z
m-254 -31 c13 -16 12 -17 -3 -4 -10 7 -18 15 -18 17 0 8 8 3 21 -13z m-354
-45 c-3 -8 -6 -5 -6 6 -1 11 2 17 5 13 3 -3 4 -12 1 -19z m509 -10 l29 -33
-32 29 c-31 28 -38 36 -30 36 2 0 16 -15 33 -32z m-1071 -244 c34 -32 43 -43
20 -23 -84 75 -181 153 -232 187 -44 29 -53 40 -53 64 0 31 9 23 265 -228z
m380 106 c49 -40 99 -77 112 -83 17 -7 23 -19 23 -40 0 -29 -5 -25 -112 78
-62 60 -131 127 -153 149 l-40 41 40 -36 c22 -20 80 -69 130 -109z m555 -179
c0 -3 -17 11 -37 31 -58 55 -223 187 -265 211 -30 17 -38 28 -38 50 0 25 15
14 170 -129 94 -86 170 -160 170 -163z m412 96 c30 -17 38 -28 38 -50 0 -26
-11 -18 -140 104 -77 74 -140 135 -140 136 0 2 46 -36 103 -83 56 -47 119 -95
139 -107z m-780 69 c2 -19 0 -32 -4 -30 -8 5 -12 64 -4 64 2 0 6 -15 8 -34z
m403 -16 c10 -11 16 -20 13 -20 -3 0 -13 9 -23 20 -10 11 -16 20 -13 20 3 0
13 -9 23 -20z m-750 -10 c10 -11 16 -20 13 -20 -3 0 -13 9 -23 20 -10 11 -16
20 -13 20 3 0 13 -9 23 -20z m-300 -161 c125 -115 157 -149 75 -79 -99 84
-239 190 -252 190 -4 0 -8 14 -8 32 l0 32 63 -60 c34 -33 89 -85 122 -115z
m1325 23 c52 -42 106 -84 119 -92 15 -10 22 -23 19 -37 -3 -19 -10 -15 -68 40
-36 34 -108 102 -160 151 -52 49 -75 73 -50 52 25 -20 88 -71 140 -114z m-507
16 c151 -142 239 -227 187 -182 -78 68 -208 173 -255 208 -73 53 -75 55 -75
76 0 11 3 20 6 20 3 0 65 -55 137 -122z m-281 -66 c47 -31 57 -42 57 -66 1
-26 -9 -18 -134 99 -74 70 -135 130 -135 132 0 2 35 -25 78 -62 42 -37 103
-83 134 -103z m115 133 c-4 -8 -11 -15 -17 -15 -7 0 -7 6 0 21 13 23 26 19 17
-6z m454 -72 c13 -16 12 -17 -3 -4 -10 7 -18 15 -18 17 0 8 8 3 21 -13z m-686
-145 c44 -36 99 -77 122 -92 40 -26 54 -49 46 -72 -2 -7 -50 32 -106 85 -141
134 -220 212 -177 175 19 -17 71 -60 115 -96z m-454 -29 c198 -186 197 -185
174 -168 -11 9 -67 56 -125 104 -58 49 -126 102 -152 118 -36 23 -48 36 -48
54 0 14 4 23 9 21 4 -1 68 -60 142 -129z m1029 -166 c0 -1 -46 36 -102 83 -57
48 -127 102 -155 122 -44 29 -53 40 -53 64 0 28 11 19 155 -118 85 -82 155
-150 155 -151z m416 90 c45 -30 54 -41 54 -66 0 -28 -4 -25 -102 70 -57 55
-128 123 -158 152 -30 29 -8 14 49 -34 57 -48 128 -103 157 -122z m-276 52
c19 -19 32 -35 29 -35 -3 0 -20 16 -39 35 -19 19 -32 35 -29 35 3 0 20 -16 39
-35z m-763 -77 c60 -51 132 -109 161 -128 42 -29 52 -40 52 -64 0 -28 -5 -25
-102 70 -57 55 -131 125 -166 157 -97 88 -65 68 55 -35z m-176 65 c13 -16 12
-17 -3 -4 -10 7 -18 15 -18 17 0 8 8 3 21 -13z m-106 -256 c22 -21 -14 5 -80
59 -66 53 -135 106 -152 117 -26 15 -33 26 -33 50 0 29 4 26 113 -78 61 -60
130 -126 152 -148z m885 -26 c25 -24 2 -7 -50 36 -52 44 -124 101 -160 127
-57 42 -88 84 -73 99 2 3 57 -46 121 -107 64 -62 137 -132 162 -155z m447 61
c34 -21 43 -33 43 -55 0 -26 -11 -18 -140 104 -77 73 -140 134 -140 136 0 2
44 -33 98 -78 53 -44 116 -92 139 -107z m-996 -61 c52 -43 110 -86 128 -95 22
-12 31 -22 27 -32 -3 -9 -6 -21 -6 -27 0 -6 -37 25 -82 69 -46 44 -121 115
-168 159 -47 43 -65 62 -40 42 25 -20 88 -73 141 -116z m624 109 c10 -11 16
-20 13 -20 -3 0 -13 9 -23 20 -10 11 -16 20 -13 20 3 0 13 -9 23 -20z m365
-216 c34 -22 46 -36 49 -59 3 -29 2 -29 -60 30 -35 33 -89 83 -119 111 -140
128 -155 147 -40 51 69 -57 146 -118 170 -133z m-1483 111 c54 -49 125 -117
158 -149 l60 -59 -65 55 c-118 99 -219 176 -240 183 -14 5 -20 15 -20 37 0 17
2 29 5 27 2 -2 48 -44 102 -94z m953 -91 c153 -141 157 -149 20 -35 -80 67
-160 128 -177 136 -27 13 -33 22 -33 48 l0 31 63 -60 c34 -33 91 -87 127 -120z
m-714 44 l29 -33 -32 29 c-18 17 -33 31 -33 33 0 8 8 1 36 -29z m302 -166 c84
-63 102 -82 102 -103 0 -25 -1 -25 -47 20 -27 26 -100 96 -163 155 -63 60 -88
86 -55 57 33 -28 106 -86 163 -129z m837 9 c43 -34 93 -72 111 -83 19 -11 34
-24 34 -28 0 -5 3 -15 6 -24 13 -34 -19 -13 -103 67 -49 46 -117 110 -153 142
-128 115 -91 88 105 -74z m-1135 -198 c0 -2 -51 40 -112 93 -62 52 -138 112
-169 132 -50 33 -77 71 -62 86 5 4 343 -303 343 -311z m758 94 c34 -32 62 -61
62 -64 0 -4 -109 85 -130 107 -14 14 -118 89 -137 99 -17 8 -23 21 -23 43 0
31 0 31 83 -48 45 -43 110 -105 145 -137z m-703 123 c10 -11 16 -20 13 -20 -3
0 -13 9 -23 20 -10 11 -16 20 -13 20 3 0 13 -9 23 -20z m900 -40 c10 -11 16
-20 13 -20 -3 0 -13 9 -23 20 -10 11 -16 20 -13 20 3 0 13 -9 23 -20z m-940
-10 c10 -11 16 -20 13 -20 -3 0 -13 9 -23 20 -10 11 -16 20 -13 20 3 0 13 -9
23 -20z m331 -187 c40 -27 54 -42 54 -59 0 -13 -3 -24 -6 -24 -5 0 -59 51
-249 234 -44 42 -32 35 44 -29 57 -48 128 -103 157 -122z m-421 -82 c78 -71
56 -55 -93 66 -55 46 -117 92 -136 104 -29 17 -36 27 -36 52 0 30 2 28 98 -64
53 -52 129 -123 167 -158z m1312 51 c33 -21 42 -33 43 -55 0 -26 -12 -18 -140
104 -77 73 -140 134 -140 136 0 2 44 -33 98 -77 53 -45 116 -93 139 -108z
m-599 85 c54 -51 122 -117 152 -146 l55 -54 -63 54 c-99 84 -226 178 -239 179
-13 0 -19 60 -7 60 3 0 49 -42 102 -93z m-311 -211 c52 -34 63 -46 63 -69 0
-27 -10 -20 -132 95 -216 201 -229 215 -108 113 63 -54 143 -116 177 -139z
m538 174 c10 -11 16 -20 13 -20 -3 0 -13 9 -23 20 -10 11 -16 20 -13 20 3 0
13 -9 23 -20z m269 -142 c55 -44 110 -85 123 -91 16 -7 23 -19 23 -39 0 -28
-7 -23 -127 90 -71 65 -144 134 -163 152 l-35 32 40 -32 c22 -18 85 -68 139
-112z m-1371 24 c51 -49 119 -114 152 -146 46 -44 35 -37 -45 29 -58 48 -128
101 -157 118 -43 26 -52 37 -53 60 0 15 3 27 6 27 3 0 47 -40 97 -88z m1046
-180 c42 -40 18 -23 -69 49 -74 61 -150 118 -167 127 -26 12 -33 22 -33 45 0
28 4 26 102 -64 55 -52 131 -122 167 -157z m-599 43 c41 -35 99 -79 128 -97
44 -28 52 -37 52 -62 l0 -30 -42 39 c-217 203 -275 259 -243 236 17 -12 64
-50 105 -86z m671 68 c13 -16 12 -17 -3 -4 -10 7 -18 15 -18 17 0 8 8 3 21
-13z m253 -116 c6 3 8 3 4 -2 -8 -9 92 -90 123 -100 13 -5 19 -15 19 -37 l0
-31 -27 24 c-39 35 -179 166 -243 228 -44 43 -39 39 29 -17 47 -39 89 -68 95
-65z m-1243 -106 c180 -164 176 -162 -71 38 -57 45 -114 88 -127 94 -16 7 -23
19 -23 40 l0 29 53 -48 c29 -27 105 -96 168 -153z m797 52 c76 -71 154 -142
175 -160 20 -18 37 -36 37 -40 0 -4 -17 9 -37 28 -86 79 -256 215 -300 238
-20 10 -34 61 -17 61 3 0 67 -57 142 -127z m-485 -66 c38 -31 93 -74 123 -94
46 -30 54 -41 54 -66 0 -30 -3 -28 -97 64 -54 52 -132 126 -173 164 -80 73
-28 36 93 -68z m956 -85 c36 -29 78 -60 94 -68 18 -10 27 -23 27 -39 0 -14 -3
-25 -6 -25 -5 0 -105 92 -324 299 -25 24 -3 7 49 -36 51 -43 123 -102 160
-131z m-1154 168 c10 -11 16 -20 13 -20 -3 0 -13 9 -23 20 -10 11 -16 20 -13
20 3 0 13 -9 23 -20z m1075 -24 c0 -2 -8 -10 -17 -17 -16 -13 -17 -12 -4 4 13
16 21 21 21 13z m-1127 -279 c37 -35 12 -17 -63 44 -69 56 -146 115 -172 131
-40 25 -48 35 -48 60 0 32 -2 34 283 -235z m854 17 c8 4 11 1 7 -5 -3 -6 7
-25 22 -42 l29 -32 -35 30 c-19 17 -37 33 -40 36 -17 18 -181 146 -207 162
-26 15 -33 26 -33 49 0 29 6 25 121 -86 77 -74 127 -115 136 -112z m-597 28
c61 -51 125 -99 141 -107 20 -11 29 -23 29 -40 0 -14 -3 -25 -7 -25 -4 0 -43
35 -87 78 -45 43 -115 109 -156 147 -94 86 -65 67 80 -53z m744 104 c-6 -15
207 -198 282 -242 33 -19 44 -32 44 -50 0 -31 -11 -30 -41 2 -13 15 -86 82
-162 151 -123 112 -139 124 -155 112 -16 -13 -16 -12 -2 6 13 18 31 34 37 35
1 0 0 -6 -3 -14z m-1190 -144 c199 -192 205 -198 151 -153 -27 23 -94 74 -147
114 -73 54 -98 78 -98 95 0 12 3 22 6 22 4 0 43 -35 88 -78z m1116 75 c0 -2
-12 -14 -27 -28 l-28 -24 24 28 c23 25 31 32 31 24z m-237 -97 c32 -30 97 -93
145 -138 l87 -84 -90 74 c-49 41 -117 94 -150 118 -70 50 -85 67 -85 93 0 23
4 20 93 -63z m-331 -188 c48 -31 57 -42 57 -67 l1 -29 -47 45 c-27 25 -79 74
-118 110 -151 141 -156 147 -55 64 58 -48 131 -103 162 -123z m579 131 c13
-16 12 -17 -3 -4 -10 7 -18 15 -18 17 0 8 8 3 21 -13z m222 -99 c41 -34 92
-74 115 -89 43 -28 54 -45 43 -63 -6 -11 -160 122 -266 231 l-40 40 37 -29
c20 -16 70 -57 111 -90z m-1178 -159 c28 -27 37 -38 20 -24 -87 74 -188 152
-180 139 5 -8 -9 1 -32 21 -22 20 -45 38 -51 40 -10 4 -15 22 -13 50 1 14 113
-84 256 -226z m747 105 c62 -58 135 -127 163 -154 l50 -49 -65 55 c-97 81
-251 198 -261 198 -5 0 -9 14 -9 32 0 17 2 29 4 27 3 -2 56 -51 118 -109z
m541 -202 c39 -26 47 -37 47 -62 0 -29 -3 -27 -92 60 -51 49 -133 127 -183
173 -82 76 -79 73 45 -29 74 -61 156 -125 183 -142z m-1223 217 c13 -14 21
-25 18 -25 -2 0 -15 11 -28 25 -13 14 -21 25 -18 25 2 0 15 -11 28 -25z m215
-95 c50 -40 105 -79 123 -88 27 -13 32 -21 32 -50 0 -28 -3 -32 -13 -23 -8 6
-18 7 -22 3 -5 -4 -5 -2 -1 5 4 7 -24 41 -71 85 -113 107 -203 196 -168 166
17 -14 71 -58 120 -98z m690 50 c10 -11 16 -20 13 -20 -3 0 -13 9 -23 20 -10
11 -16 20 -13 20 3 0 13 -9 23 -20z m-951 -263 c28 -27 6 -12 -49 33 -55 44
-128 100 -162 123 -52 35 -62 47 -63 71 0 30 8 23 274 -227z m811 41 c33 -30
80 -74 105 -97 40 -39 38 -38 -15 6 -115 96 -229 184 -255 198 -25 13 -45 57
-32 70 3 3 35 -23 71 -58 37 -36 93 -89 126 -119z m-565 14 c83 -68 79 -64
128 -97 31 -21 41 -33 40 -51 -1 -13 -5 -23 -9 -22 -6 3 -198 180 -288 267
l-46 43 55 -43 c30 -24 84 -68 120 -97z m-269 91 c13 -16 12 -17 -3 -4 -10 7
-18 15 -18 17 0 8 8 3 21 -13z m1109 -85 c31 -31 198 -158 216 -165 8 -3 14
-18 14 -35 0 -28 -8 -22 -147 108 -182 169 -198 185 -148 147 22 -17 51 -42
65 -55z m-1045 22 c10 -11 16 -20 13 -20 -3 0 -13 9 -23 20 -10 11 -16 20 -13
20 3 0 13 -9 23 -20z m-170 -135 c66 -62 134 -125 150 -140 47 -43 -6 -3 -125
93 -56 45 -115 89 -130 97 -16 8 -30 25 -32 39 -5 26 1 41 11 30 3 -3 60 -57
126 -119z m216 88 c13 -16 12 -17 -3 -4 -10 7 -18 15 -18 17 0 8 8 3 21 -13z
m769 -208 c113 -102 124 -115 37 -44 -140 115 -252 199 -264 199 -8 0 -13 14
-13 36 l0 37 83 -80 c45 -44 116 -111 157 -148z m-735 167 c0 -7 4 -13 10 -14
5 -2 27 -20 49 -40 22 -20 44 -34 48 -32 5 3 7 1 6 -4 -3 -11 114 -108 150
-125 16 -7 22 -19 22 -40 0 -17 -3 -27 -7 -23 -5 4 -44 41 -88 82 -210 193
-230 213 -210 210 11 -2 20 -8 20 -14z m1137 -240 c47 -30 57 -42 57 -65 1
-28 1 -28 -22 -10 -12 10 -63 57 -112 104 -50 47 -110 105 -135 128 -25 24 0
6 55 -39 55 -45 126 -98 157 -118z m-1312 -49 c120 -109 125 -115 68 -71 -31
23 -94 73 -140 110 -46 37 -96 72 -111 79 -22 10 -27 19 -27 48 l0 36 78 -76
c42 -42 102 -98 132 -126z m925 -68 c71 -67 64 -63 -103 71 -51 41 -103 80
-117 86 -18 8 -25 19 -25 41 0 28 2 27 88 -51 48 -44 119 -110 157 -147z
m-737 179 c6 3 9 -1 8 -8 -1 -15 163 -153 226 -189 26 -15 38 -29 38 -44 0
-13 -5 -23 -11 -23 -6 0 -50 37 -98 83 -47 45 -88 84 -91 87 -3 3 -22 21 -43
39 l-37 35 -37 -35 -38 -34 34 37 34 37 -24 21 -24 21 27 -16 c15 -9 31 -14
36 -11z m1009 -148 c59 -48 123 -95 141 -104 25 -12 32 -22 32 -44 0 -15 -3
-28 -7 -28 -4 0 -48 39 -97 88 -50 48 -120 114 -156 147 -81 75 -53 55 87 -59z
m-1182 -151 c56 -54 70 -71 36 -43 -127 103 -149 119 -203 155 -48 31 -58 43
-58 67 0 28 1 27 68 -32 37 -34 108 -100 157 -147z m855 -2 c36 -33 81 -75
100 -93 19 -17 -16 9 -78 58 -61 50 -135 105 -162 123 -42 27 -50 37 -50 63
l0 30 63 -60 c34 -33 91 -87 127 -121z m-597 43 c59 -48 123 -96 142 -108 28
-16 35 -26 35 -51 0 -30 -1 -30 -82 49 -46 44 -117 111 -158 149 -88 82 -81
77 63 -39z m923 -63 c56 -44 115 -88 132 -98 31 -18 42 -39 35 -62 -4 -11
-343 292 -343 306 0 3 17 -11 38 -30 20 -20 83 -72 138 -116z m-1364 20 c27
-26 28 -26 50 -7 l23 19 -19 -23 -20 -23 85 -77 c152 -139 166 -155 56 -68
-60 48 -132 102 -160 120 -40 26 -52 40 -53 60 -2 33 3 33 38 -1z m1113 -242
c84 -78 67 -67 -58 37 -41 34 -78 62 -82 62 -3 0 -20 14 -38 30 -18 17 -40 33
-49 36 -9 3 -24 18 -32 35 -8 16 -10 27 -5 24 5 -4 9 -1 9 6 0 7 39 -25 88
-72 48 -47 123 -118 167 -158z m-675 114 c30 -25 83 -65 118 -87 52 -35 62
-46 62 -71 0 -27 -8 -22 -132 93 -73 68 -146 136 -163 153 -32 32 -10 15 115
-88z m975 -101 c51 -39 98 -73 105 -76 6 -2 10 -16 8 -30 -3 -26 -8 -23 -108
70 -58 53 -127 119 -155 146 l-50 49 53 -44 c30 -24 96 -76 147 -115z m-1200
-144 c76 -70 77 -71 15 -22 -36 29 -109 85 -162 125 -85 62 -98 76 -98 101 0
29 3 27 83 -50 45 -44 118 -113 162 -154z m734 116 c42 -40 105 -99 141 -131
36 -32 74 -67 85 -78 l20 -21 -20 16 c-153 121 -274 213 -292 221 -16 7 -23
19 -23 39 0 15 3 28 6 28 4 0 41 -33 83 -74z m-456 -84 c37 -29 78 -58 92 -64
20 -9 25 -19 25 -45 l0 -35 -97 94 c-54 52 -123 118 -153 148 l-55 53 60 -50
c33 -27 90 -72 128 -101z m828 13 c115 -95 153 -123 182 -136 22 -10 27 -19
27 -46 l0 -34 -132 124 c-204 191 -240 226 -192 186 22 -19 74 -61 115 -94z
m-176 15 c10 -11 16 -20 13 -20 -3 0 -13 9 -23 20 -10 11 -16 20 -13 20 3 0
13 -9 23 -20z m-910 -243 c21 -20 -21 8 -95 63 -41 31 -96 69 -122 84 -43 25
-48 32 -48 63 l0 34 128 -117 c70 -65 132 -122 137 -127z m200 87 c28 -23 78
-60 113 -83 47 -33 62 -48 62 -67 0 -13 -3 -24 -6 -24 -5 0 -123 107 -279 254
l-40 38 50 -38 c28 -21 73 -57 100 -80z m685 -120 c0 -2 -39 26 -87 62 -47 36
-104 74 -125 86 -32 19 -38 27 -38 56 l0 34 125 -118 c69 -65 125 -119 125
-120z m133 146 c4 0 5 5 1 12 -4 7 -3 8 5 4 6 -4 9 -11 6 -16 -5 -8 13 -27 30
-30 6 -1 9 -6 8 -11 -2 -5 1 -9 6 -9 6 0 23 -12 38 -26 38 -36 133 -108 161
-123 16 -8 22 -21 22 -43 0 -31 -1 -31 -92 58 -51 49 -120 114 -153 145 -33
30 -56 51 -50 47 5 -5 13 -8 18 -8z m-1180 -130 c48 -44 84 -80 81 -80 -5 0
-161 86 -170 94 -7 6 -14 66 -7 66 4 0 47 -36 96 -80z m897 -40 l85 -80 -92
48 c-88 45 -93 49 -93 80 0 17 3 32 8 32 4 0 45 -36 92 -80z m-488 -63 c84
-65 95 -77 77 -82 -17 -6 -39 11 -118 91 -53 54 -87 92 -76 83 11 -9 64 -51
117 -92z m911 -50 c53 -38 56 -43 37 -51 -11 -5 -21 -7 -23 -5 -1 3 -36 40
-77 84 -46 48 -59 66 -35 46 22 -17 66 -51 98 -74z m-1338 4 c42 -45 40 -47
-37 -35 -37 6 -38 8 -38 51 0 39 2 43 18 34 9 -5 35 -28 57 -50z m325 -24 l24
-17 -24 0 c-17 1 -38 16 -65 48 l-40 47 40 -31 c22 -17 51 -38 65 -47z m860
-7 c55 -39 60 -45 40 -48 -17 -3 -37 11 -79 53 -61 63 -56 62 39 -5z m-295 0
c7 -11 -9 -13 -42 -4 -16 4 -23 14 -23 31 l0 24 30 -21 c16 -11 32 -25 35 -30z
m-735 -10 c8 -5 10 -10 4 -10 -7 0 -22 9 -35 21 -19 16 -20 18 -4 10 11 -6 27
-15 35 -21z m881 -28 c-16 -5 -41 5 -41 17 0 7 10 6 26 -1 15 -7 21 -14 15
-16z m-939 -40 l23 -25 -42 23 c-45 25 -57 42 -24 33 11 -3 30 -16 43 -31z
m802 32 c9 -3 16 -12 16 -19 0 -7 46 -57 102 -111 56 -55 96 -94 88 -88 -8 6
-50 39 -94 73 -43 34 -96 72 -117 84 -57 32 -53 83 5 61z m-634 -30 c0 -2 -9
0 -20 6 -11 6 -20 13 -20 16 0 2 9 0 20 -6 11 -6 20 -13 20 -16z m837 -9 c12
-8 36 -34 54 -57 l34 -43 -41 35 c-22 19 -54 45 -70 57 -33 25 -12 33 23 8z
m-657 -31 l0 -36 -40 32 c-22 17 -40 34 -40 36 0 2 18 4 40 4 39 0 40 -1 40
-36z m885 -26 l60 -61 -70 53 c-93 72 -92 70 -69 70 11 0 46 -27 79 -62z
m-1339 -3 l59 -55 -72 41 c-71 41 -80 49 -66 62 12 12 19 8 79 -48z m-57 -117
c1 -3 -24 9 -55 27 -31 19 -61 36 -68 38 -8 3 -7 9 3 21 13 15 18 12 66 -31
29 -27 53 -51 54 -55z m419 62 c28 -17 52 -32 52 -35 0 -14 -52 5 -85 33 -49
40 -36 41 33 2z m-110 -55 c25 -17 30 -25 20 -33 -10 -7 -29 4 -73 45 -55 51
-56 54 -20 32 22 -12 55 -33 73 -44z m652 27 c-7 -3 -16 2 -21 9 -16 25 -9 32
12 13 13 -12 16 -20 9 -22z m-1105 -63 c53 -55 51 -55 -33 -2 -29 19 -50 38
-47 43 12 19 32 9 80 -41z m380 -79 c-14 -13 -22 -8 -73 43 l-57 58 72 -43
c64 -38 71 -44 58 -58z m1534 3 c42 -29 82 -53 88 -53 17 0 28 -49 15 -62 -8
-8 -45 21 -126 97 -64 60 -116 110 -116 113 0 2 14 -7 32 -20 17 -13 65 -47
107 -75z m-2028 16 c30 -28 43 -45 29 -37 -113 65 -121 71 -108 79 20 13 20
13 79 -42z m373 -60 c53 -33 57 -38 39 -47 -17 -9 -28 -3 -74 45 -57 59 -56
59 35 2z m1210 -53 c42 -32 75 -60 72 -63 -10 -10 -71 32 -134 94 -71 69 -62
64 62 -31z m316 33 c30 -24 69 -54 85 -66 25 -18 27 -23 14 -28 -12 -4 -41 18
-100 77 -45 46 -76 78 -68 72 8 -6 39 -31 69 -55z m-1995 5 l50 -45 -55 21
c-65 25 -73 31 -64 53 9 24 13 22 69 -29z m1903 -72 c23 -19 42 -38 42 -43 0
-22 -27 -4 -94 63 -70 71 -57 66 52 -20z m-1535 14 c50 -30 58 -41 30 -48 -12
-2 -38 17 -73 52 -30 30 -44 48 -30 39 14 -9 46 -28 73 -43z m-128 -50 c20
-15 20 -15 -1 -16 -11 0 -33 14 -50 31 l-29 31 30 -15 c17 -9 39 -22 50 -31z"/>
<path d="M4883 8668 c0 -13 1 -17 4 -10 3 6 10 12 16 12 6 0 -4 -16 -23 -35
l-34 -35 23 -24 c25 -26 61 -40 61 -24 0 6 9 8 21 5 17 -5 18 -3 7 10 -10 12
-9 17 5 28 16 11 13 16 -28 54 -24 22 -46 41 -48 41 -1 0 -3 -10 -4 -22z"/>
<path d="M4794 8598 c-4 -7 -3 -10 1 -5 5 4 20 -3 34 -15 l26 -23 -24 28 c-28
31 -28 31 -37 15z"/>
<path d="M5005 8570 c3 -5 8 -10 11 -10 2 0 4 5 4 10 0 6 -5 10 -11 10 -5 0
-7 -4 -4 -10z"/>
<path d="M6501 6486 c-10 -12 -8 -13 8 -9 12 3 18 9 15 14 -7 12 -10 11 -23
-5z"/>
<path d="M7020 6006 c0 -2 8 -10 18 -17 15 -13 16 -12 3 4 -13 16 -21 21 -21
13z"/>
</g>
</svg>
