<svg xmlns="http://www.w3.org/2000/svg" version="1.0" width="600.000000pt" height="600.000000pt" viewBox="0 0 600.000000 600.000000" preserveAspectRatio="xMidYMid meet">

<g transform="translate(0.000000,600.000000) scale(0.100000,-0.100000)" fill="#fe0004" stroke="none">
<path d="M4490 5471 c0 -5 5 -13 10 -16 6 -3 10 -2 10 4 0 5 -4 13 -10 16 -5 3 -10 2 -10 -4z" fill="#fe0004"/>
<path d="M4535 5440 c-3 -5 -1 -10 4 -10 6 0 11 5 11 10 0 6 -2 10 -4 10 -3 0 -8 -4 -11 -10z" fill="#fe0004"/>
<path d="M4570 5439 c0 -5 5 -7 10 -4 6 3 10 8 10 11 0 2 -4 4 -10 4 -5 0 -10 -5 -10 -11z" fill="#fe0004"/>
<path d="M4505 5430 c3 -5 8 -10 11 -10 2 0 4 5 4 10 0 6 -5 10 -11 10 -5 0 -7 -4 -4 -10z" fill="#fe0004"/>
<path d="M4485 5400 c-3 -5 -17 -10 -31 -10 -63 0 -80 -41 -49 -117 15 -37 65 -85 65 -63 0 6 12 15 27 21 17 6 23 13 16 17 -8 5 -6 15 8 32 18 24 20 24 33 7 14 -18 30 -10 18 9 -11 16 -48 34 -72 34 -19 0 -20 2 -7 15 21 20 73 1 92 -34 8 -14 14 -20 15 -13 0 7 -11 23 -24 35 -14 12 -38 34 -55 50 -17 15 -32 23 -36 17z" fill="#fe0004"/>
<path d="M4045 5374 c-35 -18 -54 -34 -39 -34 5 0 21 6 35 14 51 26 80 28 100 7 19 -20 19 -21 -8 -26 -16 -4 -46 -13 -68 -21 -49 -17 -58 -18 -49 -2 5 7 3 8 -5 4 -7 -5 -10 -11 -7 -14 3 -3 1 -11 -6 -19 -15 -18 -4 -27 18 -15 12 7 26 5 46 -7 28 -15 30 -15 48 8 11 12 17 27 14 32 -8 14 20 11 41 -5 11 -8 16 -20 12 -29 -3 -9 -2 -19 3 -22 6 -4 10 3 10 14 0 12 4 21 8 21 16 0 10 45 -8 63 -11 10 -20 24 -20 32 0 21 -85 20 -125 -1z" fill="#fe0004"/>
<path d="M4207 5372 c-15 -7 -16 -10 -3 -27 11 -16 16 -17 29 -6 9 7 13 19 10 27 -6 15 -9 16 -36 6z" fill="#fe0004"/>
<path d="M3516 5242 c-2 -4 4 -9 15 -9 11 -1 17 2 14 8 -7 11 -22 12 -29 1z" fill="#fe0004"/>
<path d="M1843 5213 c4 -7 -8 -13 -31 -15 -20 -3 -46 -9 -56 -13 -14 -6 -17 -5 -11 4 6 10 3 11 -11 3 -11 -5 -34 -12 -53 -16 -40 -7 -103 -44 -96 -56 3 -4 -5 -10 -18 -14 -31 -7 -116 -92 -151 -150 -51 -85 -76 -156 -76 -220 0 -65 10 -65 30 -1 36 113 142 235 205 235 10 0 15 -7 13 -17 -2 -12 4 -18 17 -19 42 -2 47 -4 41 -19 -3 -8 -1 -15 4 -15 6 0 10 4 10 9 0 13 28 22 35 11 3 -5 -9 -26 -27 -47 l-33 -37 37 29 c21 17 38 32 38 35 0 3 14 7 32 8 17 2 38 8 45 14 10 8 13 6 14 -8 0 -15 2 -16 7 -4 4 8 16 17 27 18 11 2 32 10 47 18 16 8 29 10 33 4 3 -5 12 -7 19 -4 7 3 27 -6 43 -20 16 -14 42 -28 56 -32 23 -5 26 -9 15 -22 -11 -13 -10 -14 10 -8 17 6 21 4 16 -8 -4 -10 -1 -16 9 -16 9 0 17 -14 21 -40 3 -22 10 -40 14 -40 5 0 9 -6 10 -12 9 -88 10 -118 2 -113 -5 3 -11 1 -15 -5 -3 -5 1 -10 9 -10 10 0 17 -9 17 -22 1 -13 3 -34 6 -48 2 -14 6 -56 8 -95 7 -110 13 -132 38 -139 34 -9 35 -8 56 33 21 41 41 54 66 45 9 -4 18 1 22 12 10 28 56 84 69 84 13 0 24 69 24 155 0 72 -43 232 -83 311 -30 60 -122 158 -138 149 -5 -4 -19 1 -31 12 -11 10 -28 18 -37 19 -9 1 -26 2 -38 3 -13 0 -22 6 -20 13 1 6 -7 14 -18 16 -11 2 -30 13 -42 24 -16 15 -41 21 -104 25 -56 4 -80 3 -76 -4z m-148 -75 c-16 -4 -31 -5 -33 -3 -8 7 42 23 53 17 5 -3 -4 -9 -20 -14z m-165 -113 c-7 -9 -15 -13 -18 -10 -3 2 1 11 8 20 7 9 15 13 18 10 3 -2 -1 -11 -8 -20z" fill="#fe0004"/>
<path d="M3607 5093 c-8 -44 -6 -47 17 -30 13 9 16 20 11 40 -10 38 -21 34 -28 -10z" fill="#fe0004"/>
<path d="M4327 5094 c-15 -8 -27 -21 -27 -29 0 -19 5 -19 35 1 13 9 29 13 35 9 5 -3 10 0 10 8 0 22 -22 26 -53 11z" fill="#fe0004"/>
<path d="M4427 5072 c-18 -18 -25 -35 -21 -45 7 -18 44 -24 44 -7 0 6 -8 10 -17 10 -15 0 -14 4 6 19 13 10 22 25 20 35 -3 15 -8 13 -32 -12z" fill="#fe0004"/>
<path d="M4346 5004 c-4 -9 -4 -19 -1 -22 2 -3 7 3 11 12 4 9 4 19 1 22 -2 3 -7 -3 -11 -12z" fill="#fe0004"/>
<path d="M3642 4999 c2 -7 10 -15 17 -17 8 -3 12 1 9 9 -2 7 -10 15 -17 17 -8 3 -12 -1 -9 -9z" fill="#fe0004"/>
<path d="M4421 4984 c0 -11 3 -14 6 -6 3 7 2 16 -1 19 -3 4 -6 -2 -5 -13z" fill="#fe0004"/>
<path d="M4121 4903 c-17 -18 -27 -88 -11 -78 5 3 10 13 10 21 0 8 1 14 3 14 1 1 82 3 180 6 156 5 180 4 203 -11 19 -12 25 -13 22 -3 -11 34 -49 39 -222 33 -162 -6 -169 -6 -155 11 7 10 9 15 2 11 -6 -4 -13 -3 -15 2 -1 5 -9 2 -17 -6z" fill="#fe0004"/>
<path d="M3686 4864 c-4 -9 -4 -19 -1 -22 2 -3 7 3 11 12 4 9 4 19 1 22 -2 3 -7 -3 -11 -12z" fill="#fe0004"/>
<path d="M4369 4823 c-1 -5 -1 -12 0 -16 1 -4 -3 -17 -9 -27 -9 -17 -7 -20 11 -20 18 0 20 2 9 16 -11 13 -10 16 8 21 18 4 19 7 7 19 -15 16 -24 18 -26 7z" fill="#fe0004"/>
<path d="M4555 4730 c3 -5 8 -10 11 -10 2 0 4 5 4 10 0 6 -5 10 -11 10 -5 0 -7 -4 -4 -10z" fill="#fe0004"/>
<path d="M2105 4700 c4 -6 11 -8 16 -5 14 9 11 15 -7 15 -8 0 -12 -5 -9 -10z" fill="#fe0004"/>
<path d="M4499 4673 c-1 -5 -2 -14 -3 -22 0 -8 -7 -16 -15 -19 -8 -3 -11 0 -7 7 4 6 2 11 -3 11 -6 0 -11 -7 -11 -16 0 -8 -5 -12 -10 -9 -6 3 -12 0 -15 -7 -9 -22 -124 -17 -136 5 -14 24 -39 21 -39 -4 0 -11 -4 -18 -9 -14 -5 3 -12 -3 -14 -12 -3 -10 -5 -4 -6 14 -1 35 -16 51 -25 28 -3 -8 -11 -15 -17 -15 -8 0 -8 4 1 15 20 24 8 36 -22 20 -16 -7 -28 -10 -28 -4 0 16 -38 10 -48 -7 -5 -9 -15 -14 -21 -10 -6 4 -9 11 -6 16 3 5 1 11 -4 14 -5 4 -13 2 -16 -4 -5 -8 -11 -7 -21 1 -11 9 -14 7 -14 -10 0 -15 -6 -22 -17 -20 -37 3 -53 -1 -53 -16 0 -18 -21 -20 -39 -2 -10 10 -10 7 -2 -16 6 -16 11 -36 11 -45 -1 -15 -3 -15 -15 2 -15 19 -15 19 -15 -1 0 -27 29 -39 37 -15 4 9 13 21 20 25 7 5 10 14 6 20 -3 7 4 3 18 -8 13 -11 26 -21 28 -22 2 -1 -9 -1 -24 0 -18 1 -29 -3 -30 -13 -2 -8 -4 -19 -6 -25 -5 -21 13 -43 32 -38 23 6 24 11 2 36 -18 19 -17 19 5 6 12 -8 22 -17 22 -21 0 -20 -15 -38 -32 -38 -10 0 -16 -5 -13 -10 4 -6 11 -8 16 -5 9 6 13 -7 10 -37 -2 -14 3 -16 28 -8 23 6 31 5 36 -8 6 -14 9 -13 18 8 l10 25 7 -30 c4 -16 8 -26 9 -21 0 5 9 2 19 -5 15 -12 16 -12 5 2 -18 23 -3 32 16 11 21 -24 52 -36 45 -17 -3 7 3 16 15 20 11 3 20 11 18 18 -1 6 7 12 18 14 11 1 14 0 8 -3 -7 -3 -13 -12 -13 -20 0 -8 -7 -14 -15 -14 -8 0 -15 -4 -15 -9 0 -17 38 1 43 20 3 10 12 21 21 24 9 3 23 7 32 10 13 4 14 8 4 20 -6 8 -9 19 -5 25 3 5 1 10 -4 10 -6 0 -11 6 -11 13 1 6 9 2 19 -10 22 -27 43 -29 61 -8 10 12 10 15 -1 15 -11 0 -11 2 1 10 22 14 34 -4 19 -29 -11 -16 -11 -23 -1 -33 6 -6 12 -21 12 -32 0 -10 3 -16 7 -12 11 11 12 66 2 66 -5 0 -6 7 -2 16 5 15 7 15 15 0 5 -9 6 -26 2 -39 -6 -20 -5 -20 10 -8 9 8 15 20 12 28 -3 7 -1 13 4 13 6 0 10 6 10 14 0 16 69 87 85 86 14 0 40 37 37 54 -3 13 0 16 10 10 10 -6 9 -3 -1 10 -14 17 -15 17 -22 -2 -8 -22 -27 -37 -35 -29 -3 3 2 19 11 36 14 27 14 31 0 31 -8 0 -16 -3 -16 -7z m-219 -73 c-6 -11 -13 -20 -16 -20 -2 0 0 9 6 20 6 11 13 20 16 20 2 0 0 -9 -6 -20z m200 -25 c-7 -9 -15 -13 -19 -10 -3 3 1 10 9 15 21 14 24 12 10 -5z m-167 -78 c-5 -8 -8 -7 -11 1 -2 7 -9 9 -14 6 -7 -4 -8 -2 -4 4 4 6 13 9 21 6 8 -4 12 -11 8 -17z m-358 -5 c-3 -3 -11 0 -18 7 -9 10 -8 11 6 5 10 -3 15 -9 12 -12z m82 -8 c-9 -9 -28 6 -21 18 4 6 10 6 17 -1 6 -6 8 -13 4 -17z m201 -38 c-7 -8 -15 -12 -17 -11 -5 6 10 25 20 25 5 0 4 -6 -3 -14z m-28 0 c0 -2 -7 -9 -15 -16 -12 -10 -15 -10 -15 4 0 9 7 16 15 16 8 0 15 -2 15 -4z m-190 -16 c0 -5 -7 -10 -15 -10 -8 0 -15 5 -15 10 0 6 7 10 15 10 8 0 15 -4 15 -10z m110 -21 c0 -5 5 -7 10 -4 6 3 10 1 10 -4 0 -17 -27 -13 -34 4 -3 8 -1 15 4 15 6 0 10 -5 10 -11z" fill="#fe0004"/>
<path d="M1370 4624 c-13 -32 -13 -84 -1 -84 5 0 13 9 16 20 5 17 16 20 68 21 34 1 65 1 70 0 4 0 7 10 7 24 0 31 -31 45 -101 45 -44 0 -51 -3 -59 -26z" fill="#fe0004"/>
<path d="M1731 4627 c-17 -21 6 -57 36 -57 13 0 23 -3 23 -7 0 -5 28 -9 61 -10 73 -3 99 -18 130 -73 38 -68 56 -45 29 38 -24 73 -63 112 -109 110 -20 0 -63 2 -97 6 -48 6 -63 4 -73 -7z" fill="#fe0004"/>
<path d="M3836 4602 c-3 -6 1 -13 10 -16 23 -9 28 -2 10 13 -8 7 -17 8 -20 3z" fill="#fe0004"/>
<path d="M3850 4561 c0 -5 5 -13 10 -16 6 -3 10 -2 10 4 0 5 -4 13 -10 16 -5 3 -10 2 -10 -4z" fill="#fe0004"/>
<path d="M1442 4523 c-22 -4 -42 -37 -42 -69 0 -19 26 -18 34 1 3 8 18 15 33 15 25 0 25 -1 8 -13 -23 -18 -13 -67 15 -74 11 -3 17 -10 14 -15 -8 -13 15 -28 33 -21 19 7 43 56 43 87 0 16 -12 34 -37 54 -42 33 -67 41 -101 35z" fill="#fe0004"/>
<path d="M1753 4487 c-4 -8 -16 -16 -25 -20 -23 -8 -23 -22 2 -47 12 -12 15 -20 8 -20 -7 0 -4 -7 7 -16 11 -8 19 -20 18 -25 -4 -11 8 -11 25 0 11 7 11 11 -2 23 -14 14 -13 17 3 32 27 24 38 19 33 -14 -5 -37 11 -45 70 -33 39 8 43 12 46 40 4 41 -26 69 -90 82 -65 14 -85 14 -95 -2z" fill="#fe0004"/>
<path d="M3890 4483 c0 -12 5 -25 11 -28 19 -12 22 3 5 27 l-16 22 0 -21z" fill="#fe0004"/>
<path d="M2371 4436 c-8 -10 -9 -16 -1 -21 5 -3 10 -25 11 -48 1 -23 4 -53 8 -66 5 -19 10 -11 24 45 10 38 15 77 12 87 -9 21 -38 22 -54 3z m37 -67 c-3 -20 -5 -19 -9 9 -3 20 -2 29 4 23 5 -5 7 -19 5 -32z" fill="#fe0004"/>
<path d="M2290 4320 c-13 -25 -13 -50 1 -50 6 0 9 9 6 20 -5 21 4 19 36 -8 16 -14 16 -13 6 16 -13 37 -35 48 -49 22z" fill="#fe0004"/>
<path d="M4520 4301 c0 -22 24 -53 123 -160 72 -79 149 -182 109 -147 -12 11 -22 17 -22 15 0 -3 31 -47 70 -99 98 -134 182 -347 235 -599 21 -102 19 -341 -4 -553 -31 -271 -31 -261 5 -269 44 -9 48 -12 101 -90 116 -169 127 -198 98 -249 -8 -14 -14 -37 -15 -52 0 -16 -9 -36 -20 -45 -11 -10 -31 -28 -45 -41 -43 -42 -94 -61 -170 -64 -65 -3 -76 0 -113 26 -53 37 -54 50 -2 42 44 -7 44 -7 30 28 -6 16 -15 24 -24 20 -8 -3 -27 1 -43 9 -17 8 -37 11 -53 6 -63 -18 -169 -2 -224 36 l-34 23 -9 -36 c-8 -32 -14 -38 -48 -46 -22 -5 -41 -10 -42 -11 -3 -1 -27 -271 -64 -700 -11 -132 -25 -244 -30 -249 -5 -6 -49 -12 -99 -14 -79 -4 -90 -7 -90 -23 0 -10 -4 -20 -9 -23 -4 -3 -11 -19 -15 -37 -4 -23 -10 -29 -23 -25 -10 3 -106 21 -213 41 -107 20 -235 45 -285 56 -49 10 -111 19 -137 19 -41 0 -48 3 -48 20 0 14 -11 22 -42 30 -73 19 -78 21 -78 33 0 19 77 500 105 657 8 41 16 89 19 106 l5 31 -77 7 c-42 3 -102 9 -133 12 l-57 6 4 -48 c12 -130 36 -209 86 -281 26 -38 28 -47 19 -76 -15 -49 -31 -135 -31 -167 0 -15 -7 -33 -16 -41 -9 -7 -29 -40 -46 -73 -29 -57 -30 -66 -36 -224 -3 -110 -1 -197 8 -265 8 -56 12 -106 11 -112 -11 -34 -31 -156 -31 -190 0 -22 -5 -56 -10 -76 -12 -43 3 -344 20 -401 l11 -38 1047 0 1047 0 23 83 c43 156 65 386 43 448 -11 32 -10 35 15 54 15 11 46 40 71 65 62 64 77 119 63 240 -6 51 -12 96 -15 100 -9 15 -35 375 -29 407 4 23 2 39 -8 51 -12 13 -14 30 -7 77 4 33 8 103 8 155 1 157 21 431 37 501 7 37 14 97 14 133 l0 66 39 0 c22 0 43 5 46 10 4 6 -12 10 -40 10 -39 0 -46 3 -43 18 3 13 14 17 51 16 57 0 49 14 -9 18 l-41 3 -6 150 c-6 159 2 259 34 419 36 185 25 241 -82 435 -33 58 -59 109 -59 113 0 23 -199 435 -244 506 -52 82 -63 87 -371 164 -22 6 -53 16 -70 24 -48 21 -127 54 -131 54 -2 0 -4 -9 -4 -19z m420 -3443 c0 -19 -18 -43 -25 -36 -4 3 -2 16 5 27 12 24 20 27 20 9z m112 -301 c-19 -19 -20 -19 -15 9 9 53 14 61 24 35 8 -19 6 -29 -9 -44z m-32 -6 c0 -12 -40 -61 -50 -61 -5 0 1 16 13 35 21 33 37 44 37 26z" fill="#fe0004"/>
<path d="M3507 4217 c-44 -42 -94 -72 -270 -160 -191 -95 -286 -152 -274 -163 2 -2 38 12 80 31 42 19 82 35 90 35 7 0 28 -18 46 -40 17 -22 40 -40 50 -40 28 0 132 -118 168 -190 38 -78 79 -198 88 -260 6 -49 -18 -213 -33 -218 -5 -1 -7 -45 -4 -96 7 -136 -3 -194 -43 -256 -31 -47 -54 -124 -42 -136 3 -3 36 -17 73 -31 79 -29 141 -35 166 -15 14 11 30 12 85 3 37 -6 151 -20 253 -31 102 -11 247 -28 323 -36 76 -9 140 -14 143 -11 3 3 -9 41 -26 85 -17 44 -65 188 -106 319 -91 289 -124 374 -219 568 -128 262 -291 503 -429 632 l-66 63 -53 -53z" fill="#fe0004"/>
<path d="M2294 4234 c4 -9 1 -22 -5 -30 -6 -7 -9 -21 -6 -31 3 -15 6 -13 15 10 6 15 18 27 27 27 8 0 15 7 15 16 0 8 -4 13 -9 9 -5 -3 -12 -1 -16 5 -10 16 -28 11 -21 -6z" fill="#fe0004"/>
<path d="M2371 4223 c-10 -26 -10 -27 4 -9 8 11 15 23 15 28 0 15 -7 8 -19 -19z" fill="#fe0004"/>
<path d="M4324 4205 c-10 -8 -14 -15 -8 -15 6 0 17 7 24 15 16 19 9 19 -16 0z" fill="#fe0004"/>
<path d="M4258 4183 c7 -3 16 -2 19 1 4 3 -2 6 -13 5 -11 0 -14 -3 -6 -6z" fill="#fe0004"/>
<path d="M1710 4145 c-9 -23 -14 -25 -45 -19 -26 4 -42 1 -63 -12 -35 -24 -76 -28 -92 -9 -7 8 -17 15 -22 15 -13 0 -38 -26 -38 -39 0 -16 16 -13 30 4 11 13 14 12 26 -11 20 -37 17 -62 -7 -69 -15 -5 -17 -10 -10 -19 6 -7 9 -16 6 -20 -3 -3 1 -2 7 4 7 5 23 10 36 10 23 0 24 3 19 38 -5 25 -3 32 3 22 9 -14 15 -7 10 15 -1 6 4 4 11 -2 19 -19 36 -16 42 6 3 13 12 18 32 16 36 -4 42 -12 27 -36 -19 -29 -5 -42 39 -36 26 3 42 0 50 -9 6 -8 8 -14 3 -15 -5 -1 -33 -3 -62 -5 -29 -2 -62 -9 -72 -14 -10 -5 -32 -7 -48 -4 -18 4 -52 -1 -82 -11 -28 -9 -62 -15 -76 -12 -28 5 -28 6 -11 -26 11 -21 16 -23 33 -13 11 6 68 11 134 12 95 1 124 5 162 23 26 11 55 18 65 15 16 -5 16 -4 -1 10 -11 9 -15 16 -9 16 6 0 20 -12 31 -26 l19 -27 21 35 c12 20 22 42 22 50 0 12 -133 141 -168 162 -8 5 -15 -2 -22 -19z m75 -47 l36 -43 -31 -9 c-26 -8 -33 -6 -46 13 -9 12 -20 19 -25 16 -5 -4 -9 -2 -9 2 0 15 24 63 32 63 3 0 23 -19 43 -42z m44 -79 c-14 -8 -29 -3 -29 11 0 4 9 6 21 3 15 -4 17 -8 8 -14z m36 -48 c-3 -6 -11 -8 -17 -5 -6 4 -5 9 3 15 16 10 23 4 14 -10z" fill="#fe0004"/>
<path d="M4282 4140 c-18 -11 -40 -20 -50 -20 -16 0 -57 -37 -91 -82 -11 -15 -9 -16 26 -6 34 9 39 8 53 -13 8 -13 34 -44 57 -68 46 -48 46 -50 63 -201 5 -52 13 -108 16 -124 6 -24 4 -28 -9 -23 -13 5 -14 3 -2 -21 28 -55 57 -136 71 -196 7 -33 36 -146 64 -251 48 -184 83 -339 117 -515 8 -47 17 -86 18 -88 6 -7 255 -9 255 -2 0 38 -185 714 -244 892 -41 124 -82 254 -91 289 -19 71 -46 129 -70 149 -28 23 -45 67 -52 130 -6 62 6 80 27 40 10 -18 70 -57 70 -46 0 13 -94 138 -117 156 -33 25 -69 25 -111 0z" fill="#fe0004"/>
<path d="M2241 4112 c-13 -25 -14 -52 -2 -52 8 0 22 61 16 68 -2 2 -8 -5 -14 -16z" fill="#fe0004"/>
<path d="M2137 4094 c-8 -8 1 -24 14 -24 5 0 9 7 9 15 0 15 -12 20 -23 9z" fill="#fe0004"/>
<path d="M2056 3988 c-5 -19 -8 -21 -16 -8 -8 13 -10 12 -10 -2 0 -10 -5 -18 -11 -18 -5 0 -8 4 -4 9 3 5 1 12 -5 16 -5 3 -10 2 -10 -4 0 -5 -3 -16 -6 -25 -4 -11 0 -16 12 -17 11 0 14 -3 7 -6 -7 -2 -13 -10 -13 -18 0 -7 -16 -27 -37 -44 -35 -30 -61 -41 -48 -21 3 6 1 10 -5 10 -8 0 -10 -9 -7 -23 7 -27 -7 -56 -18 -37 -4 7 -1 16 6 21 9 5 10 9 2 9 -6 0 -9 9 -6 20 3 12 0 20 -6 20 -7 0 -10 4 -7 9 8 12 -22 7 -35 -6 -7 -7 -2 -13 17 -17 22 -6 25 -9 13 -17 -8 -5 -9 -9 -2 -9 6 0 9 -9 6 -20 -6 -24 -7 -24 -37 -5 -22 15 -24 14 -29 -5 -3 -11 0 -20 6 -20 7 -1 0 -11 -15 -23 -14 -12 -28 -31 -30 -42 -4 -25 -40 -46 -50 -31 -5 7 -8 5 -8 -4 0 -9 -9 -16 -20 -16 -11 0 -20 6 -20 13 0 7 -11 13 -26 13 -14 0 -23 -4 -20 -8 8 -13 -68 -3 -92 12 -7 4 -15 6 -18 3 -8 -8 99 -80 146 -98 25 -9 89 -40 143 -68 53 -28 105 -51 115 -51 90 3 272 162 296 260 5 19 2 17 -13 -10 l-20 -35 -1 43 c0 24 -5 52 -10 63 -6 10 -7 19 -3 19 4 0 9 11 9 25 2 31 -18 33 -46 3 -13 -14 -19 -17 -15 -7 4 10 0 16 -9 16 -8 0 -12 -6 -9 -14 3 -7 1 -13 -5 -13 -13 0 -36 66 -27 80 4 6 1 9 -7 8 -7 -2 -14 8 -16 21 -3 16 0 21 9 16 8 -5 10 -4 5 4 -4 6 0 14 8 17 9 3 16 12 16 20 0 22 -17 16 -24 -8z m78 -215 c9 -23 2 -25 -27 -10 -29 15 -29 22 2 24 11 1 22 -5 25 -14z" fill="#fe0004"/>
<path d="M1588 3993 c7 -3 16 -2 19 1 4 3 -2 6 -13 5 -11 0 -14 -3 -6 -6z" fill="#fe0004"/>
<path d="M1960 3970 c0 -11 2 -20 4 -20 2 0 6 9 9 20 3 11 1 20 -4 20 -5 0 -9 -9 -9 -20z" fill="#fe0004"/>
<path d="M1443 3955 c0 -8 4 -12 9 -9 5 3 6 10 3 15 -9 13 -12 11 -12 -6z" fill="#fe0004"/>
<path d="M1968 3916 c-4 -17 -1 -23 9 -19 15 6 18 29 4 37 -5 3 -11 -5 -13 -18z" fill="#fe0004"/>
<path d="M1750 3911 c-11 -22 -7 -24 23 -12 17 6 17 8 4 20 -13 10 -17 9 -27 -8z" fill="#fe0004"/>
<path d="M2086 3904 c-9 -23 -2 -28 13 -10 7 8 8 17 3 20 -6 3 -13 -1 -16 -10z" fill="#fe0004"/>
<path d="M1525 3872 c-3 -8 3 -16 15 -19 25 -7 25 -18 1 -42 -17 -17 -18 -20 -3 -19 9 0 40 -2 69 -5 50 -4 52 -3 55 22 2 17 13 30 31 39 29 14 34 26 16 38 -6 3 -15 0 -20 -7 -6 -9 -12 -10 -16 -4 -12 16 -142 13 -148 -3z" fill="#fe0004"/>
<path d="M1402 3838 c-13 -17 0 -48 33 -78 l28 -25 -23 32 c-15 21 -21 40 -18 57 6 28 -3 34 -20 14z" fill="#fe0004"/>
<path d="M1328 3802 c-14 -15 -35 -35 -46 -45 -23 -21 -163 -67 -204 -67 -38 0 -76 -16 -114 -50 -19 -16 -51 -32 -71 -35 -54 -9 -102 -25 -109 -36 -3 -5 15 -18 39 -28 45 -19 61 -40 51 -65 -3 -8 3 -19 14 -25 90 -48 239 -538 203 -667 -6 -22 -11 -49 -11 -61 0 -20 -47 -123 -104 -228 -16 -30 -16 -30 -17 -5 l0 25 -10 -23 c-18 -46 2 -61 101 -76 8 -1 20 4 25 10 8 10 39 9 140 -2 72 -7 228 -16 348 -20 l218 -6 -5 24 c-3 12 -13 59 -22 103 -17 90 -45 208 -110 471 -68 277 -200 654 -261 744 -26 39 -29 60 -11 78 9 9 9 12 -2 12 -8 -1 -27 -13 -42 -28z" fill="#fe0004"/>
<path d="M1464 3793 c2 -10 8 -19 15 -21 8 -3 9 -8 2 -16 -8 -9 -6 -18 3 -32 13 -17 14 -17 9 9 -3 16 -1 27 6 27 15 0 4 23 -18 37 -16 10 -19 9 -17 -4z" fill="#fe0004"/>
<path d="M2285 3718 c21 -65 52 -192 85 -345 7 -28 10 -59 8 -70 -1 -10 3 -31 9 -48 21 -55 51 -215 63 -340 5 -49 13 -119 19 -155 25 -161 25 -580 0 -564 -5 3 -9 18 -9 33 0 40 -27 111 -55 145 l-24 30 4 -37 c1 -20 12 -48 23 -62 17 -21 19 -31 11 -58 -5 -18 -7 -49 -3 -69 4 -25 -1 -56 -16 -97 -15 -42 -20 -79 -18 -126 2 -57 -1 -69 -17 -82 -11 -7 -27 -12 -36 -10 -27 7 -39 -6 -24 -26 12 -17 45 -14 45 4 0 5 7 9 15 9 17 0 61 63 70 101 5 22 39 49 62 49 15 0 -12 -71 -53 -141 -25 -44 -46 -92 -46 -109 -1 -17 -5 -33 -10 -36 -16 -10 -8 -22 23 -33 32 -11 32 -11 26 -68 -7 -78 -54 -178 -109 -230 -42 -39 -45 -41 -74 -28 l-31 13 -7 253 c-3 139 -9 255 -11 257 -3 3 -48 9 -101 13 -52 4 -104 11 -115 14 -18 6 -19 -1 -19 -192 -1 -109 -3 -241 -5 -293 -21 -446 -27 -566 -32 -573 -3 -5 -23 -6 -44 -3 -36 6 -39 4 -45 -20 l-7 -27 -181 7 c-100 3 -204 9 -232 12 -52 6 -52 6 -69 -29 -21 -44 -40 -48 -146 -27 -77 16 -85 16 -96 1 -10 -14 -11 -14 -10 2 2 14 -11 24 -47 37 -27 11 -53 23 -57 27 -5 5 0 163 11 353 10 190 22 406 25 481 l7 136 -77 -14 c-59 -10 -94 -10 -143 -3 -35 6 -67 8 -71 5 -7 -7 -7 -532 0 -710 3 -78 0 -116 -9 -130 -13 -19 -13 -19 -7 2 3 13 2 30 -3 39 -27 48 -92 -285 -70 -361 4 -16 13 -59 19 -95 12 -74 56 -217 69 -225 5 -3 5 -18 -1 -33 -5 -15 -11 -58 -13 -97 -2 -38 -8 -94 -11 -122 l-8 -53 1073 0 1073 0 -6 73 c-3 39 -13 104 -23 144 -17 70 -17 73 2 115 10 23 19 63 19 88 -1 74 -25 351 -37 415 -12 71 -13 84 -3 153 6 37 4 52 -4 52 -8 0 -9 14 -5 43 8 54 41 184 51 200 4 6 6 20 5 30 -2 10 1 24 6 30 5 7 10 31 9 54 0 35 6 46 32 69 21 18 29 30 22 37 -6 6 -5 15 5 24 8 8 14 23 14 33 0 11 11 22 30 29 17 5 30 14 30 19 0 5 10 14 23 20 20 10 19 11 -8 5 -30 -6 -30 -6 -12 15 11 11 16 25 13 31 -4 5 0 13 8 18 7 4 30 28 50 52 30 36 34 46 24 59 -11 13 -10 14 8 8 16 -5 23 0 32 19 10 22 9 27 -5 32 -14 6 -61 -3 -118 -22 -11 -4 -5 2 13 14 23 15 32 28 32 47 l0 27 -72 -6 -73 -6 50 15 c28 7 66 14 85 14 51 0 70 16 30 24 -18 3 -43 6 -56 6 -13 0 -27 7 -31 15 -6 10 -37 19 -90 25 -87 11 -150 30 -186 55 -12 8 -35 15 -52 15 -56 0 -54 -3 -108 195 -18 67 -21 106 -21 235 1 143 4 167 38 310 20 85 51 199 69 253 26 80 29 101 19 115 -24 34 -26 46 -8 56 62 37 60 30 60 205 l1 163 -60 28 c-119 58 -208 92 -263 102 -31 6 -72 16 -90 24 -18 8 -36 14 -41 14 -5 0 2 -33 14 -72z m142 -1710 c-3 -8 -6 -5 -6 6 -1 11 2 17 5 13 3 -3 4 -12 1 -19z m3 -22 c0 -3 -4 -8 -10 -11 -5 -3 -10 -1 -10 4 0 6 5 11 10 11 6 0 10 -2 10 -4z m690 -141 c7 -8 8 -15 2 -15 -5 0 -15 7 -22 15 -7 8 -8 15 -2 15 5 0 15 -7 22 -15z m-2398 -1094 c-5 -3 -14 -15 -20 -26 -17 -29 -15 -3 3 38 8 20 16 51 17 69 1 18 3 9 5 -21 2 -30 0 -57 -5 -60z m368 -48 c-11 -17 -11 -17 -6 0 3 10 6 24 7 30 0 9 2 9 5 0 3 -7 0 -20 -6 -30z" fill="#fe0004"/>
<path d="M721 3546 c-24 -14 -24 -14 -3 -20 26 -8 42 -1 42 20 0 17 -8 17 -39 0z" fill="#fe0004"/>
<path d="M1935 3446 c-16 -7 -36 -11 -43 -8 -14 4 -102 -74 -102 -91 0 -5 9 -7 19 -4 22 5 44 -16 84 -78 25 -40 25 -40 11 -130 -30 -192 -34 -227 -33 -263 0 -20 3 -30 6 -22 2 8 7 21 9 29 2 8 7 12 9 9 7 -6 32 -203 39 -308 13 -172 14 -177 46 -184 20 -3 47 3 82 19 29 14 65 25 80 25 27 0 27 1 22 53 -23 229 -78 592 -100 660 -22 66 -24 212 -4 212 32 0 16 34 -34 73 -33 25 -49 27 -91 8z" fill="#fe0004"/>
<path d="M955 2594 c0 -64 2 -72 13 -57 9 12 12 33 8 61 -10 75 -21 73 -21 -4z" fill="#fe0004"/>
<path d="M5558 2393 c6 -2 18 -2 25 0 6 3 1 5 -13 5 -14 0 -19 -2 -12 -5z" fill="#fe0004"/>
<path d="M2259 1970 c-1 -8 -1 -18 0 -22 0 -5 -5 -8 -11 -8 -9 0 -8 -3 2 -10 20 -12 35 14 21 38 -8 14 -11 14 -12 2z" fill="#fe0004"/>
<path d="M3130 1940 c-8 -5 -12 -12 -9 -15 4 -3 12 1 19 10 14 17 11 19 -10 5z" fill="#fe0004"/>
<path d="M2228 1845 c6 -35 19 -40 33 -14 9 17 8 23 -2 30 -25 16 -36 10 -31 -16z" fill="#fe0004"/>
</g>
</svg>